<svg xmlns="http://www.w3.org/2000/svg" width="400" height="600" viewBox="0 0 400 600">
  <rect width="400" height="600" fill="#2D2D2D"/>
  <g clip-path="url(#cover-clip)">
    <line x1="-300" y1="0" x2="-646" y2="600" stroke="#C75B3A" stroke-width="1.5" opacity="0.18"/>
<line x1="-200" y1="0" x2="-546" y2="600" stroke="#C75B3A" stroke-width="2.3" opacity="0.16"/>
<line x1="-100" y1="0" x2="-446" y2="600" stroke="#C75B3A" stroke-width="3.1" opacity="0.14"/>
<line x1="0" y1="0" x2="-346" y2="600" stroke="#C75B3A" stroke-width="1.5" opacity="0.13"/>
<line x1="100" y1="0" x2="-246" y2="600" stroke="#C75B3A" stroke-width="2.3" opacity="0.11"/>
<line x1="200" y1="0" x2="-146" y2="600" stroke="#C75B3A" stroke-width="3.1" opacity="0.09"/>
<line x1="300" y1="0" x2="-46" y2="600" stroke="#C75B3A" stroke-width="1.5" opacity="0.09"/>
<line x1="400" y1="0" x2="54" y2="600" stroke="#C75B3A" stroke-width="2.3" opacity="0.11"/>
<line x1="500" y1="0" x2="154" y2="600" stroke="#C75B3A" stroke-width="3.1" opacity="0.13"/>
<line x1="600" y1="0" x2="254" y2="600" stroke="#C75B3A" stroke-width="1.5" opacity="0.14"/>
<line x1="700" y1="0" x2="354" y2="600" stroke="#C75B3A" stroke-width="2.3" opacity="0.16"/>
<line x1="800" y1="0" x2="454" y2="600" stroke="#C75B3A" stroke-width="3.1" opacity="0.18"/>
  </g>
  <rect x="0" y="498" width="400" height="104" fill="#2D2D2D" opacity="0.6"/>
<line x1="30" y1="503" x2="370" y2="503" stroke="#C75B3A" stroke-width="0.5" opacity="0.3"/>
<text x="30" y="518" font-family="Helvetica Neue, Helvetica, Arial, sans-serif" font-size="32" font-weight="700" fill="#C75B3A" letter-spacing="0.08em" opacity="0.9"><tspan  dy="0">ALBION&apos;S SEED</tspan></text>
<text x="30" y="566" font-family="Helvetica Neue, Helvetica, Arial, sans-serif" font-size="14" font-weight="400" fill="#C75B3A" letter-spacing="0.04em" opacity="0.55">David Hackett Fischer</text>
  <rect x="0" y="0" width="6" height="600" fill="#4A4A4A" opacity="0.25"/><line x1="6" y1="0" x2="6" y2="600" stroke="#C75B3A" stroke-width="0.5" opacity="0.15"/>
  <clipPath id="cover-clip">
    <rect width="400" height="600"/>
  </clipPath>
</svg>