<svg xmlns="http://www.w3.org/2000/svg" width="400" height="600" viewBox="0 0 400 600">
  <rect width="400" height="600" fill="#4A3A2A"/>
  <g clip-path="url(#cover-clip)">
    <path d="M 0,73 L 8,70 L 16,67 L 24,63 L 32,60 L 40,56 L 48,53 L 56,50 L 64,47 L 72,44 L 80,43 L 88,42 L 96,41 L 104,41 L 112,42 L 120,43 L 128,46 L 136,48 L 144,51 L 152,54 L 160,58 L 168,61 L 176,65 L 184,68 L 192,71 L 200,74 L 208,76 L 216,78 L 224,79 L 232,79 L 240,79 L 248,78 L 256,76 L 264,74 L 272,71 L 280,68 L 288,64 L 296,61 L 304,57 L 312,54 L 320,51 L 328,48 L 336,45 L 344,43 L 352,42 L 360,41 L 368,41 L 376,42 L 384,43 L 392,45 L 400,47 L 408,50" fill="none" stroke="#FAF8F5" stroke-width="1.5" opacity="0.10"/>
<path d="M 0,116 L 8,115 L 16,114 L 24,113 L 32,113 L 40,114 L 48,115 L 56,118 L 64,120 L 72,123 L 80,126 L 88,130 L 96,133 L 104,137 L 112,140 L 120,143 L 128,146 L 136,148 L 144,150 L 152,151 L 160,151 L 168,151 L 176,150 L 184,148 L 192,146 L 200,143 L 208,140 L 216,136 L 224,133 L 232,129 L 240,126 L 248,123 L 256,120 L 264,117 L 272,115 L 280,114 L 288,113 L 296,113 L 304,114 L 312,115 L 320,117 L 328,119 L 336,122 L 344,125 L 352,129 L 360,132 L 368,136 L 376,139 L 384,142 L 392,145 L 400,148 L 408,149" fill="none" stroke="#FAF8F5" stroke-width="2.5" opacity="0.13"/>
<path d="M 0,195 L 8,198 L 16,202 L 24,206 L 32,209 L 40,212 L 48,215 L 56,218 L 64,220 L 72,222 L 80,223 L 88,223 L 96,223 L 104,222 L 112,220 L 120,218 L 128,215 L 136,212 L 144,208 L 152,205 L 160,201 L 168,198 L 176,195 L 184,192 L 192,189 L 200,187 L 208,186 L 216,185 L 224,185 L 232,186 L 240,187 L 248,189 L 256,191 L 264,194 L 272,197 L 280,201 L 288,204 L 296,208 L 304,211 L 312,214 L 320,217 L 328,220 L 336,221 L 344,222 L 352,223 L 360,223 L 368,222 L 376,220 L 384,218 L 392,216 L 400,213 L 408,210" fill="none" stroke="#FAF8F5" stroke-width="1.5" opacity="0.16"/>
<path d="M 0,294 L 8,295 L 16,295 L 24,295 L 32,294 L 40,292 L 48,290 L 56,287 L 64,284 L 72,280 L 80,277 L 88,273 L 96,270 L 104,266 L 112,264 L 120,261 L 128,259 L 136,258 L 144,257 L 152,257 L 160,258 L 168,259 L 176,261 L 184,263 L 192,266 L 200,269 L 208,273 L 216,276 L 224,280 L 232,283 L 240,287 L 248,289 L 256,292 L 264,293 L 272,295 L 280,295 L 288,295 L 296,294 L 304,292 L 312,290 L 320,288 L 328,285 L 336,281 L 344,278 L 352,274 L 360,271 L 368,268 L 376,264 L 384,262 L 392,260 L 400,258 L 408,257" fill="none" stroke="#FAF8F5" stroke-width="2.5" opacity="0.19"/>
<path d="M 0,352 L 8,349 L 16,345 L 24,342 L 32,338 L 40,336 L 48,333 L 56,331 L 64,330 L 72,329 L 80,329 L 88,330 L 96,331 L 104,333 L 112,335 L 120,338 L 128,341 L 136,345 L 144,349 L 152,352 L 160,355 L 168,359 L 176,361 L 184,364 L 192,365 L 200,367 L 208,367 L 216,367 L 224,366 L 232,364 L 240,362 L 248,360 L 256,357 L 264,353 L 272,350 L 280,346 L 288,343 L 296,339 L 304,336 L 312,334 L 320,332 L 328,330 L 336,329 L 344,329 L 352,329 L 360,331 L 368,332 L 376,334 L 384,337 L 392,340 L 400,344 L 408,347" fill="none" stroke="#FAF8F5" stroke-width="1.5" opacity="0.22"/>
  </g>
  <rect x="0" y="495" width="400" height="112" fill="#4A3A2A" opacity="0.6"/>
<line x1="30" y1="500" x2="370" y2="500" stroke="#FAF8F5" stroke-width="0.5" opacity="0.3"/>
<text x="30" y="516" font-family="Helvetica Neue, Helvetica, Arial, sans-serif" font-size="38" font-weight="700" fill="#FAF8F5" letter-spacing="0.08em" opacity="0.9"><tspan  dy="0">BEHAVE</tspan></text>
<text x="30" y="572" font-family="Helvetica Neue, Helvetica, Arial, sans-serif" font-size="14" font-weight="400" fill="#FAF8F5" letter-spacing="0.04em" opacity="0.55">Robert Sapolsky</text>
  <rect x="0" y="0" width="6" height="600" fill="#7A6A5A" opacity="0.25"/><line x1="6" y1="0" x2="6" y2="600" stroke="#FAF8F5" stroke-width="0.5" opacity="0.15"/>
  <clipPath id="cover-clip">
    <rect width="400" height="600"/>
  </clipPath>
</svg>