<svg xmlns="http://www.w3.org/2000/svg" width="400" height="600" viewBox="0 0 400 600">
  <rect width="400" height="600" fill="#2D4A3E"/>
  <g clip-path="url(#cover-clip)">
    <rect x="12" y="53" width="13" height="131" fill="#E8DFD0" opacity="0.12"/>
<rect x="39" y="93" width="30" height="180" fill="#E8DFD0" opacity="0.16"/>
<rect x="79" y="133" width="23" height="229" fill="#E8DFD0" opacity="0.20"/>
<rect x="119" y="173" width="16" height="278" fill="#E8DFD0" opacity="0.24"/>
<rect x="147" y="213" width="33" height="326" fill="#E8DFD0" opacity="0.08"/>
<rect x="187" y="43" width="25" height="375" fill="#E8DFD0" opacity="0.12"/>
<rect x="227" y="82" width="18" height="424" fill="#E8DFD0" opacity="0.16"/>
<rect x="267" y="122" width="11" height="98" fill="#E8DFD0" opacity="0.20"/>
<rect x="295" y="162" width="28" height="146" fill="#E8DFD0" opacity="0.24"/>
<rect x="335" y="202" width="21" height="195" fill="#E8DFD0" opacity="0.08"/>
<rect x="375" y="32" width="13" height="244" fill="#E8DFD0" opacity="0.12"/>
  </g>
  <rect x="0" y="498" width="400" height="104" fill="#2D4A3E" opacity="0.6"/>
<line x1="30" y1="503" x2="370" y2="503" stroke="#E8DFD0" stroke-width="0.5" opacity="0.3"/>
<text x="30" y="518" font-family="Helvetica Neue, Helvetica, Arial, sans-serif" font-size="32" font-weight="700" fill="#E8DFD0" letter-spacing="0.08em" opacity="0.9"><tspan  dy="0">DEEP WORK</tspan></text>
<text x="30" y="566" font-family="Helvetica Neue, Helvetica, Arial, sans-serif" font-size="14" font-weight="400" fill="#E8DFD0" letter-spacing="0.04em" opacity="0.55">Cal Newport</text>
  <rect x="0" y="0" width="6" height="600" fill="#4A7A6A" opacity="0.25"/><line x1="6" y1="0" x2="6" y2="600" stroke="#E8DFD0" stroke-width="0.5" opacity="0.15"/>
  <clipPath id="cover-clip">
    <rect width="400" height="600"/>
  </clipPath>
</svg>