<svg xmlns="http://www.w3.org/2000/svg" width="400" height="600" viewBox="0 0 400 600">
  <rect width="400" height="600" fill="#E8DFD0"/>
  <g clip-path="url(#cover-clip)">
    <circle cx="337" cy="161" r="25" fill="none" stroke="#C75B3A" stroke-width="1" opacity="0.12"/>
<circle cx="30" cy="20" r="23" fill="#C75B3A" opacity="0.05"/>
<circle cx="103" cy="239" r="21" fill="none" stroke="#C75B3A" stroke-width="1" opacity="0.23"/>
<circle cx="176" cy="98" r="19" fill="none" stroke="#C75B3A" stroke-width="1" opacity="0.21"/>
<circle cx="249" cy="317" r="17" fill="#C75B3A" opacity="0.14"/>
<circle cx="322" cy="176" r="15" fill="none" stroke="#C75B3A" stroke-width="1" opacity="0.17"/>
<circle cx="15" cy="35" r="13" fill="none" stroke="#C75B3A" stroke-width="1" opacity="0.15"/>
<circle cx="88" cy="254" r="11" fill="#C75B3A" opacity="0.08"/>
<circle cx="161" cy="113" r="9" fill="none" stroke="#C75B3A" stroke-width="1" opacity="0.11"/>
<circle cx="234" cy="332" r="7" fill="none" stroke="#C75B3A" stroke-width="1" opacity="0.24"/>
<circle cx="307" cy="191" r="5" fill="#C75B3A" opacity="0.17"/>
<circle cx="380" cy="50" r="3" fill="none" stroke="#C75B3A" stroke-width="1" opacity="0.20"/>
<circle cx="73" cy="269" r="26" fill="none" stroke="#C75B3A" stroke-width="1" opacity="0.18"/>
  </g>
  <rect x="0" y="466" width="400" height="134" fill="#E8DFD0" opacity="0.6"/>
<line x1="30" y1="471" x2="370" y2="471" stroke="#C75B3A" stroke-width="0.5" opacity="0.3"/>
<text x="30" y="484" font-family="Helvetica Neue, Helvetica, Arial, sans-serif" font-size="28" font-weight="700" fill="#C75B3A" letter-spacing="0.08em" opacity="0.9"><tspan  dy="0">DOING GOOD</tspan><tspan x="30" dy="35">BETTER</tspan></text>
<text x="30" y="562" font-family="Helvetica Neue, Helvetica, Arial, sans-serif" font-size="14" font-weight="400" fill="#C75B3A" letter-spacing="0.04em" opacity="0.55">William MacAskill</text>
  <rect x="0" y="0" width="6" height="600" fill="#D4C8B8" opacity="0.25"/><line x1="6" y1="0" x2="6" y2="600" stroke="#C75B3A" stroke-width="0.5" opacity="0.15"/>
  <clipPath id="cover-clip">
    <rect width="400" height="600"/>
  </clipPath>
</svg>