<svg xmlns="http://www.w3.org/2000/svg" width="400" height="600" viewBox="0 0 400 600">
  <rect width="400" height="600" fill="#2D4A3E"/>
  <g clip-path="url(#cover-clip)">
    <rect x="80" y="20" width="80" height="51" fill="#E8DFD0" opacity="0.06"/>
<rect x="320" y="20" width="80" height="51" fill="#E8DFD0" opacity="0.12"/>
<rect x="80" y="71" width="80" height="51" fill="none" stroke="#E8DFD0" stroke-width="0.5" opacity="0.1"/>
<rect x="320" y="71" width="80" height="51" fill="#E8DFD0" opacity="0.06"/>
<rect x="0" y="123" width="80" height="51" fill="#E8DFD0" opacity="0.12"/>
<rect x="240" y="123" width="80" height="51" fill="#E8DFD0" opacity="0.18"/>
<rect x="240" y="174" width="80" height="51" fill="#E8DFD0" opacity="0.12"/>
<rect x="160" y="226" width="80" height="51" fill="#E8DFD0" opacity="0.24"/>
<rect x="160" y="277" width="80" height="51" fill="none" stroke="#E8DFD0" stroke-width="0.5" opacity="0.1"/>
<rect x="80" y="329" width="80" height="51" fill="#E8DFD0" opacity="0.10"/>
<rect x="320" y="329" width="80" height="51" fill="#E8DFD0" opacity="0.16"/>
  </g>
  <rect x="0" y="458" width="400" height="144" fill="#2D4A3E" opacity="0.6"/>
<line x1="30" y1="463" x2="370" y2="463" stroke="#E8DFD0" stroke-width="0.5" opacity="0.3"/>
<text x="30" y="478" font-family="Helvetica Neue, Helvetica, Arial, sans-serif" font-size="32" font-weight="700" fill="#E8DFD0" letter-spacing="0.08em" opacity="0.9"><tspan  dy="0">DOOMSDAY</tspan><tspan x="30" dy="40">MACHINE</tspan></text>
<text x="30" y="566" font-family="Helvetica Neue, Helvetica, Arial, sans-serif" font-size="14" font-weight="400" fill="#E8DFD0" letter-spacing="0.04em" opacity="0.55">Daniel Ellsberg</text>
  <rect x="0" y="0" width="6" height="600" fill="#4A7A6A" opacity="0.25"/><line x1="6" y1="0" x2="6" y2="600" stroke="#E8DFD0" stroke-width="0.5" opacity="0.15"/>
  <clipPath id="cover-clip">
    <rect width="400" height="600"/>
  </clipPath>
</svg>