<svg xmlns="http://www.w3.org/2000/svg" width="400" height="600" viewBox="0 0 400 600">
  <rect width="400" height="600" fill="#1A1A1A"/>
  <g clip-path="url(#cover-clip)">
    <rect x="10" y="74" width="11" height="169" fill="#E07856" opacity="0.12"/>
<rect x="33" y="114" width="26" height="218" fill="#E07856" opacity="0.16"/>
<rect x="67" y="154" width="19" height="266" fill="#E07856" opacity="0.20"/>
<rect x="101" y="194" width="13" height="315" fill="#E07856" opacity="0.24"/>
<rect x="125" y="234" width="28" height="364" fill="#E07856" opacity="0.08"/>
<rect x="158" y="64" width="22" height="412" fill="#E07856" opacity="0.12"/>
<rect x="192" y="104" width="15" height="461" fill="#E07856" opacity="0.16"/>
<rect x="226" y="143" width="9" height="135" fill="#E07856" opacity="0.20"/>
<rect x="250" y="183" width="24" height="184" fill="#E07856" opacity="0.24"/>
<rect x="284" y="223" width="17" height="232" fill="#E07856" opacity="0.08"/>
<rect x="317" y="53" width="11" height="281" fill="#E07856" opacity="0.12"/>
<rect x="341" y="93" width="26" height="330" fill="#E07856" opacity="0.16"/>
<rect x="375" y="133" width="19" height="379" fill="#E07856" opacity="0.20"/>
  </g>
  <rect x="0" y="495" width="400" height="112" fill="#1A1A1A" opacity="0.6"/>
<line x1="30" y1="500" x2="370" y2="500" stroke="#E07856" stroke-width="0.5" opacity="0.3"/>
<text x="30" y="516" font-family="Helvetica Neue, Helvetica, Arial, sans-serif" font-size="38" font-weight="700" fill="#E07856" letter-spacing="0.08em" opacity="0.9"><tspan  dy="0">DRIVE</tspan></text>
<text x="30" y="572" font-family="Helvetica Neue, Helvetica, Arial, sans-serif" font-size="14" font-weight="400" fill="#E07856" letter-spacing="0.04em" opacity="0.55">Daniel Pink</text>
  <rect x="0" y="0" width="6" height="600" fill="#3A3A3A" opacity="0.25"/><line x1="6" y1="0" x2="6" y2="600" stroke="#E07856" stroke-width="0.5" opacity="0.15"/>
  <clipPath id="cover-clip">
    <rect width="400" height="600"/>
  </clipPath>
</svg>