<svg xmlns="http://www.w3.org/2000/svg" width="400" height="600" viewBox="0 0 400 600">
  <rect width="400" height="600" fill="#C75B3A"/>
  <g clip-path="url(#cover-clip)">
    <line x1="248" y1="168" x2="728" y2="168" stroke="#FAF8F5" stroke-width="0.8" opacity="0.06"/>
<line x1="248" y1="168" x2="691" y2="352" stroke="#FAF8F5" stroke-width="1.1" opacity="0.11"/>
<line x1="248" y1="168" x2="587" y2="507" stroke="#FAF8F5" stroke-width="1.4" opacity="0.16"/>
<line x1="248" y1="168" x2="432" y2="611" stroke="#FAF8F5" stroke-width="1.7" opacity="0.06"/>
<line x1="248" y1="168" x2="248" y2="648" stroke="#FAF8F5" stroke-width="0.8" opacity="0.11"/>
<line x1="248" y1="168" x2="64" y2="611" stroke="#FAF8F5" stroke-width="1.1" opacity="0.16"/>
<line x1="248" y1="168" x2="-91" y2="507" stroke="#FAF8F5" stroke-width="1.4" opacity="0.06"/>
<line x1="248" y1="168" x2="-195" y2="352" stroke="#FAF8F5" stroke-width="1.7" opacity="0.11"/>
<line x1="248" y1="168" x2="-232" y2="168" stroke="#FAF8F5" stroke-width="0.8" opacity="0.16"/>
<line x1="248" y1="168" x2="-195" y2="-16" stroke="#FAF8F5" stroke-width="1.1" opacity="0.06"/>
<line x1="248" y1="168" x2="-91" y2="-171" stroke="#FAF8F5" stroke-width="1.4" opacity="0.11"/>
<line x1="248" y1="168" x2="64" y2="-275" stroke="#FAF8F5" stroke-width="1.7" opacity="0.16"/>
<line x1="248" y1="168" x2="248" y2="-312" stroke="#FAF8F5" stroke-width="0.8" opacity="0.06"/>
<line x1="248" y1="168" x2="432" y2="-275" stroke="#FAF8F5" stroke-width="1.1" opacity="0.11"/>
<line x1="248" y1="168" x2="587" y2="-171" stroke="#FAF8F5" stroke-width="1.4" opacity="0.16"/>
<line x1="248" y1="168" x2="691" y2="-16" stroke="#FAF8F5" stroke-width="1.7" opacity="0.06"/>
  </g>
  <rect x="0" y="498" width="400" height="104" fill="#C75B3A" opacity="0.6"/>
<line x1="30" y1="503" x2="370" y2="503" stroke="#FAF8F5" stroke-width="0.5" opacity="0.3"/>
<text x="30" y="518" font-family="Helvetica Neue, Helvetica, Arial, sans-serif" font-size="32" font-weight="700" fill="#FAF8F5" letter-spacing="0.08em" opacity="0.9"><tspan  dy="0">ELON MUSK</tspan></text>
<text x="30" y="566" font-family="Helvetica Neue, Helvetica, Arial, sans-serif" font-size="14" font-weight="400" fill="#FAF8F5" letter-spacing="0.04em" opacity="0.55">Walter Isaacson</text>
  <rect x="0" y="0" width="6" height="600" fill="#982F1A" opacity="0.25"/><line x1="6" y1="0" x2="6" y2="600" stroke="#FAF8F5" stroke-width="0.5" opacity="0.15"/>
  <clipPath id="cover-clip">
    <rect width="400" height="600"/>
  </clipPath>
</svg>