<svg xmlns="http://www.w3.org/2000/svg" width="400" height="600" viewBox="0 0 400 600">
  <rect width="400" height="600" fill="#FAF8F5"/>
  <g clip-path="url(#cover-clip)">
    <path d="M 0,86 L 8,88 L 16,89 L 24,89 L 32,88 L 40,86 L 48,83 L 56,79 L 64,74 L 72,69 L 80,64 L 88,59 L 96,53 L 104,48 L 112,43 L 120,39 L 128,36 L 136,33 L 144,32 L 152,31 L 160,31 L 168,33 L 176,35 L 184,39 L 192,43 L 200,47 L 208,52 L 216,58 L 224,63 L 232,69 L 240,74 L 248,78 L 256,82 L 264,85 L 272,87 L 280,89 L 288,89 L 296,88 L 304,86 L 312,84 L 320,80 L 328,76 L 336,71 L 344,66 L 352,60 L 360,55 L 368,50 L 376,45 L 384,40 L 392,37 L 400,34 L 408,32" fill="none" stroke="#1A1A1A" stroke-width="1.5" opacity="0.10"/>
<path d="M 0,121 L 8,115 L 16,110 L 24,105 L 32,99 L 40,95 L 48,91 L 56,87 L 64,85 L 72,83 L 80,82 L 88,83 L 96,84 L 104,87 L 112,90 L 120,94 L 128,99 L 136,104 L 144,109 L 152,115 L 160,120 L 168,125 L 176,130 L 184,134 L 192,137 L 200,139 L 208,140 L 216,140 L 224,140 L 232,138 L 240,135 L 248,132 L 256,127 L 264,122 L 272,117 L 280,112 L 288,106 L 296,101 L 304,96 L 312,92 L 320,88 L 328,85 L 336,83 L 344,83 L 352,83 L 360,84 L 368,86 L 376,89 L 384,93 L 392,97 L 400,102 L 408,107" fill="none" stroke="#1A1A1A" stroke-width="2.5" opacity="0.12"/>
<path d="M 0,184 L 8,187 L 16,190 L 24,191 L 32,192 L 40,191 L 48,190 L 56,188 L 64,184 L 72,180 L 80,176 L 88,171 L 96,165 L 104,160 L 112,154 L 120,149 L 128,145 L 136,141 L 144,138 L 152,135 L 160,134 L 168,134 L 176,135 L 184,136 L 192,139 L 200,143 L 208,147 L 216,152 L 224,157 L 232,162 L 240,168 L 248,173 L 256,178 L 264,182 L 272,186 L 280,189 L 288,191 L 296,192 L 304,192 L 312,191 L 320,189 L 328,186 L 336,182 L 344,177 L 352,172 L 360,167 L 368,162 L 376,156 L 384,151 L 392,146 L 400,142 L 408,139" fill="none" stroke="#1A1A1A" stroke-width="1.5" opacity="0.14"/>
<path d="M 0,232 L 8,227 L 16,222 L 24,216 L 32,211 L 40,206 L 48,201 L 56,196 L 64,192 L 72,189 L 80,187 L 88,186 L 96,185 L 104,186 L 112,188 L 120,191 L 128,194 L 136,198 L 144,203 L 152,208 L 160,214 L 168,219 L 176,225 L 184,229 L 192,234 L 200,238 L 208,240 L 216,242 L 224,243 L 232,243 L 240,242 L 248,240 L 256,237 L 264,233 L 272,229 L 280,224 L 288,218 L 296,213 L 304,207 L 312,202 L 320,198 L 328,193 L 336,190 L 344,187 L 352,186 L 360,185 L 368,186 L 376,187 L 384,190 L 392,193 L 400,197 L 408,202" fill="none" stroke="#1A1A1A" stroke-width="2.5" opacity="0.16"/>
<path d="M 0,240 L 8,238 L 16,237 L 24,237 L 32,238 L 40,239 L 48,242 L 56,246 L 64,250 L 72,255 L 80,260 L 88,265 L 96,271 L 104,276 L 112,281 L 120,285 L 128,289 L 136,292 L 144,294 L 152,295 L 160,295 L 168,293 L 176,291 L 184,288 L 192,284 L 200,280 L 208,275 L 216,270 L 224,264 L 232,259 L 240,254 L 248,249 L 256,245 L 264,241 L 272,239 L 280,237 L 288,237 L 296,237 L 304,239 L 312,241 L 320,244 L 328,248 L 336,253 L 344,258 L 352,264 L 360,269 L 368,274 L 376,279 L 384,284 L 392,288 L 400,291 L 408,293" fill="none" stroke="#1A1A1A" stroke-width="1.5" opacity="0.19"/>
<path d="M 0,306 L 8,312 L 16,317 L 24,322 L 32,328 L 40,333 L 48,337 L 56,340 L 64,343 L 72,345 L 80,346 L 88,346 L 96,345 L 104,343 L 112,340 L 120,336 L 128,331 L 136,326 L 144,321 L 152,316 L 160,310 L 168,305 L 176,300 L 184,296 L 192,293 L 200,290 L 208,289 L 216,288 L 224,289 L 232,290 L 240,293 L 248,296 L 256,300 L 264,305 L 272,310 L 280,315 L 288,321 L 296,326 L 304,331 L 312,335 L 320,339 L 328,342 L 336,345 L 344,346 L 352,346 L 360,345 L 368,343 L 376,341 L 384,337 L 392,333 L 400,328 L 408,323" fill="none" stroke="#1A1A1A" stroke-width="2.5" opacity="0.21"/>
<path d="M 0,397 L 8,398 L 16,397 L 24,396 L 32,394 L 40,391 L 48,387 L 56,383 L 64,378 L 72,372 L 80,367 L 88,361 L 96,356 L 104,352 L 112,347 L 120,344 L 128,342 L 136,340 L 144,340 L 152,340 L 160,342 L 168,344 L 176,347 L 184,351 L 192,356 L 200,361 L 208,367 L 216,372 L 224,377 L 232,382 L 240,387 L 248,391 L 256,394 L 264,396 L 272,397 L 280,398 L 288,397 L 296,395 L 304,392 L 312,388 L 320,384 L 328,379 L 336,374 L 344,369 L 352,363 L 360,358 L 368,353 L 376,349 L 384,345 L 392,342 L 400,341 L 408,340" fill="none" stroke="#1A1A1A" stroke-width="1.5" opacity="0.23"/>
  </g>
  <rect x="0" y="466" width="400" height="134" fill="#FAF8F5" opacity="0.6"/>
<line x1="30" y1="471" x2="370" y2="471" stroke="#1A1A1A" stroke-width="0.5" opacity="0.3"/>
<text x="30" y="484" font-family="Helvetica Neue, Helvetica, Arial, sans-serif" font-size="28" font-weight="700" fill="#1A1A1A" letter-spacing="0.08em" opacity="0.9"><tspan  dy="0">EXTREME</tspan><tspan x="30" dy="35">OWNERSHIP</tspan></text>
<text x="30" y="562" font-family="Helvetica Neue, Helvetica, Arial, sans-serif" font-size="14" font-weight="400" fill="#1A1A1A" letter-spacing="0.04em" opacity="0.55">Jocko Willink &amp; Leif Babin</text>
  <rect x="0" y="0" width="6" height="600" fill="#E0DAD0" opacity="0.25"/><line x1="6" y1="0" x2="6" y2="600" stroke="#1A1A1A" stroke-width="0.5" opacity="0.15"/>
  <clipPath id="cover-clip">
    <rect width="400" height="600"/>
  </clipPath>
</svg>