<svg xmlns="http://www.w3.org/2000/svg" width="400" height="600" viewBox="0 0 400 600">
  <rect width="400" height="600" fill="#5A2A2A"/>
  <g clip-path="url(#cover-clip)">
    <circle cx="40.0" cy="47.7" r="4.5" fill="#D4A84B" opacity="0.12"/>
<circle cx="80.0" cy="47.7" r="8.1" fill="#D4A84B" opacity="0.35"/>
<circle cx="120.0" cy="47.7" r="4.5" fill="#D4A84B" opacity="0.12"/>
<circle cx="160.0" cy="47.7" r="4.5" fill="#D4A84B" opacity="0.12"/>
<circle cx="200.0" cy="47.7" r="4.5" fill="#D4A84B" opacity="0.12"/>
<circle cx="240.0" cy="47.7" r="4.5" fill="#D4A84B" opacity="0.12"/>
<circle cx="280.0" cy="47.7" r="8.1" fill="#D4A84B" opacity="0.35"/>
<circle cx="320.0" cy="47.7" r="4.5" fill="#D4A84B" opacity="0.12"/>
<circle cx="360.0" cy="47.7" r="4.5" fill="#D4A84B" opacity="0.12"/>
<circle cx="40.0" cy="75.4" r="8.1" fill="#D4A84B" opacity="0.35"/>
<circle cx="80.0" cy="75.4" r="4.5" fill="#D4A84B" opacity="0.12"/>
<circle cx="120.0" cy="75.4" r="4.5" fill="#D4A84B" opacity="0.12"/>
<circle cx="160.0" cy="75.4" r="4.5" fill="#D4A84B" opacity="0.12"/>
<circle cx="200.0" cy="75.4" r="4.5" fill="#D4A84B" opacity="0.12"/>
<circle cx="240.0" cy="75.4" r="8.1" fill="#D4A84B" opacity="0.35"/>
<circle cx="280.0" cy="75.4" r="4.5" fill="#D4A84B" opacity="0.12"/>
<circle cx="320.0" cy="75.4" r="4.5" fill="#D4A84B" opacity="0.12"/>
<circle cx="360.0" cy="75.4" r="4.5" fill="#D4A84B" opacity="0.12"/>
<circle cx="40.0" cy="103.1" r="4.5" fill="#D4A84B" opacity="0.12"/>
<circle cx="80.0" cy="103.1" r="4.5" fill="#D4A84B" opacity="0.12"/>
<circle cx="120.0" cy="103.1" r="4.5" fill="#D4A84B" opacity="0.12"/>
<circle cx="160.0" cy="103.1" r="4.5" fill="#D4A84B" opacity="0.12"/>
<circle cx="200.0" cy="103.1" r="8.1" fill="#D4A84B" opacity="0.35"/>
<circle cx="240.0" cy="103.1" r="4.5" fill="#D4A84B" opacity="0.12"/>
<circle cx="280.0" cy="103.1" r="4.5" fill="#D4A84B" opacity="0.12"/>
<circle cx="320.0" cy="103.1" r="4.5" fill="#D4A84B" opacity="0.12"/>
<circle cx="360.0" cy="103.1" r="4.5" fill="#D4A84B" opacity="0.12"/>
<circle cx="40.0" cy="130.8" r="4.5" fill="#D4A84B" opacity="0.12"/>
<circle cx="80.0" cy="130.8" r="4.5" fill="#D4A84B" opacity="0.12"/>
<circle cx="120.0" cy="130.8" r="4.5" fill="#D4A84B" opacity="0.12"/>
<circle cx="160.0" cy="130.8" r="8.1" fill="#D4A84B" opacity="0.35"/>
<circle cx="200.0" cy="130.8" r="4.5" fill="#D4A84B" opacity="0.12"/>
<circle cx="240.0" cy="130.8" r="4.5" fill="#D4A84B" opacity="0.12"/>
<circle cx="280.0" cy="130.8" r="4.5" fill="#D4A84B" opacity="0.12"/>
<circle cx="320.0" cy="130.8" r="4.5" fill="#D4A84B" opacity="0.12"/>
<circle cx="360.0" cy="130.8" r="8.1" fill="#D4A84B" opacity="0.35"/>
<circle cx="40.0" cy="158.5" r="4.5" fill="#D4A84B" opacity="0.12"/>
<circle cx="80.0" cy="158.5" r="4.5" fill="#D4A84B" opacity="0.12"/>
<circle cx="120.0" cy="158.5" r="8.1" fill="#D4A84B" opacity="0.35"/>
<circle cx="160.0" cy="158.5" r="4.5" fill="#D4A84B" opacity="0.12"/>
<circle cx="200.0" cy="158.5" r="4.5" fill="#D4A84B" opacity="0.12"/>
<circle cx="240.0" cy="158.5" r="4.5" fill="#D4A84B" opacity="0.12"/>
<circle cx="280.0" cy="158.5" r="4.5" fill="#D4A84B" opacity="0.12"/>
<circle cx="320.0" cy="158.5" r="8.1" fill="#D4A84B" opacity="0.35"/>
<circle cx="360.0" cy="158.5" r="4.5" fill="#D4A84B" opacity="0.12"/>
<circle cx="40.0" cy="186.2" r="4.5" fill="#D4A84B" opacity="0.12"/>
<circle cx="80.0" cy="186.2" r="8.1" fill="#D4A84B" opacity="0.35"/>
<circle cx="120.0" cy="186.2" r="4.5" fill="#D4A84B" opacity="0.12"/>
<circle cx="160.0" cy="186.2" r="4.5" fill="#D4A84B" opacity="0.12"/>
<circle cx="200.0" cy="186.2" r="4.5" fill="#D4A84B" opacity="0.12"/>
<circle cx="240.0" cy="186.2" r="4.5" fill="#D4A84B" opacity="0.12"/>
<circle cx="280.0" cy="186.2" r="8.1" fill="#D4A84B" opacity="0.35"/>
<circle cx="320.0" cy="186.2" r="4.5" fill="#D4A84B" opacity="0.12"/>
<circle cx="360.0" cy="186.2" r="4.5" fill="#D4A84B" opacity="0.12"/>
<circle cx="40.0" cy="213.8" r="8.1" fill="#D4A84B" opacity="0.35"/>
<circle cx="80.0" cy="213.8" r="4.5" fill="#D4A84B" opacity="0.12"/>
<circle cx="120.0" cy="213.8" r="4.5" fill="#D4A84B" opacity="0.12"/>
<circle cx="160.0" cy="213.8" r="4.5" fill="#D4A84B" opacity="0.12"/>
<circle cx="200.0" cy="213.8" r="4.5" fill="#D4A84B" opacity="0.12"/>
<circle cx="240.0" cy="213.8" r="8.1" fill="#D4A84B" opacity="0.35"/>
<circle cx="280.0" cy="213.8" r="4.5" fill="#D4A84B" opacity="0.12"/>
<circle cx="320.0" cy="213.8" r="4.5" fill="#D4A84B" opacity="0.12"/>
<circle cx="360.0" cy="213.8" r="4.5" fill="#D4A84B" opacity="0.12"/>
<circle cx="40.0" cy="241.5" r="4.5" fill="#D4A84B" opacity="0.12"/>
<circle cx="80.0" cy="241.5" r="4.5" fill="#D4A84B" opacity="0.12"/>
<circle cx="120.0" cy="241.5" r="4.5" fill="#D4A84B" opacity="0.12"/>
<circle cx="160.0" cy="241.5" r="4.5" fill="#D4A84B" opacity="0.12"/>
<circle cx="200.0" cy="241.5" r="8.1" fill="#D4A84B" opacity="0.35"/>
<circle cx="240.0" cy="241.5" r="4.5" fill="#D4A84B" opacity="0.12"/>
<circle cx="280.0" cy="241.5" r="4.5" fill="#D4A84B" opacity="0.12"/>
<circle cx="320.0" cy="241.5" r="4.5" fill="#D4A84B" opacity="0.12"/>
<circle cx="360.0" cy="241.5" r="4.5" fill="#D4A84B" opacity="0.12"/>
<circle cx="40.0" cy="269.2" r="4.5" fill="#D4A84B" opacity="0.12"/>
<circle cx="80.0" cy="269.2" r="4.5" fill="#D4A84B" opacity="0.12"/>
<circle cx="120.0" cy="269.2" r="4.5" fill="#D4A84B" opacity="0.12"/>
<circle cx="160.0" cy="269.2" r="8.1" fill="#D4A84B" opacity="0.35"/>
<circle cx="200.0" cy="269.2" r="4.5" fill="#D4A84B" opacity="0.12"/>
<circle cx="240.0" cy="269.2" r="4.5" fill="#D4A84B" opacity="0.12"/>
<circle cx="280.0" cy="269.2" r="4.5" fill="#D4A84B" opacity="0.12"/>
<circle cx="320.0" cy="269.2" r="4.5" fill="#D4A84B" opacity="0.12"/>
<circle cx="360.0" cy="269.2" r="8.1" fill="#D4A84B" opacity="0.35"/>
<circle cx="40.0" cy="296.9" r="4.5" fill="#D4A84B" opacity="0.12"/>
<circle cx="80.0" cy="296.9" r="4.5" fill="#D4A84B" opacity="0.12"/>
<circle cx="120.0" cy="296.9" r="8.1" fill="#D4A84B" opacity="0.35"/>
<circle cx="160.0" cy="296.9" r="4.5" fill="#D4A84B" opacity="0.12"/>
<circle cx="200.0" cy="296.9" r="4.5" fill="#D4A84B" opacity="0.12"/>
<circle cx="240.0" cy="296.9" r="4.5" fill="#D4A84B" opacity="0.12"/>
<circle cx="280.0" cy="296.9" r="4.5" fill="#D4A84B" opacity="0.12"/>
<circle cx="320.0" cy="296.9" r="8.1" fill="#D4A84B" opacity="0.35"/>
<circle cx="360.0" cy="296.9" r="4.5" fill="#D4A84B" opacity="0.12"/>
<circle cx="40.0" cy="324.6" r="4.5" fill="#D4A84B" opacity="0.12"/>
<circle cx="80.0" cy="324.6" r="8.1" fill="#D4A84B" opacity="0.35"/>
<circle cx="120.0" cy="324.6" r="4.5" fill="#D4A84B" opacity="0.12"/>
<circle cx="160.0" cy="324.6" r="4.5" fill="#D4A84B" opacity="0.12"/>
<circle cx="200.0" cy="324.6" r="4.5" fill="#D4A84B" opacity="0.12"/>
<circle cx="240.0" cy="324.6" r="4.5" fill="#D4A84B" opacity="0.12"/>
<circle cx="280.0" cy="324.6" r="8.1" fill="#D4A84B" opacity="0.35"/>
<circle cx="320.0" cy="324.6" r="4.5" fill="#D4A84B" opacity="0.12"/>
<circle cx="360.0" cy="324.6" r="4.5" fill="#D4A84B" opacity="0.12"/>
<circle cx="40.0" cy="352.3" r="8.1" fill="#D4A84B" opacity="0.35"/>
<circle cx="80.0" cy="352.3" r="4.5" fill="#D4A84B" opacity="0.12"/>
<circle cx="120.0" cy="352.3" r="4.5" fill="#D4A84B" opacity="0.12"/>
<circle cx="160.0" cy="352.3" r="4.5" fill="#D4A84B" opacity="0.12"/>
<circle cx="200.0" cy="352.3" r="4.5" fill="#D4A84B" opacity="0.12"/>
<circle cx="240.0" cy="352.3" r="8.1" fill="#D4A84B" opacity="0.35"/>
<circle cx="280.0" cy="352.3" r="4.5" fill="#D4A84B" opacity="0.12"/>
<circle cx="320.0" cy="352.3" r="4.5" fill="#D4A84B" opacity="0.12"/>
<circle cx="360.0" cy="352.3" r="4.5" fill="#D4A84B" opacity="0.12"/>
  </g>
  <rect x="0" y="498" width="400" height="104" fill="#5A2A2A" opacity="0.6"/>
<line x1="30" y1="503" x2="370" y2="503" stroke="#D4A84B" stroke-width="0.5" opacity="0.3"/>
<text x="30" y="518" font-family="Helvetica Neue, Helvetica, Arial, sans-serif" font-size="32" font-weight="700" fill="#D4A84B" letter-spacing="0.08em" opacity="0.9"><tspan  dy="0">FACTFULNESS</tspan></text>
<text x="30" y="566" font-family="Helvetica Neue, Helvetica, Arial, sans-serif" font-size="14" font-weight="400" fill="#D4A84B" letter-spacing="0.04em" opacity="0.55">Hans Rosling</text>
  <rect x="0" y="0" width="6" height="600" fill="#8A4A4A" opacity="0.25"/><line x1="6" y1="0" x2="6" y2="600" stroke="#D4A84B" stroke-width="0.5" opacity="0.15"/>
  <clipPath id="cover-clip">
    <rect width="400" height="600"/>
  </clipPath>
</svg>