<svg xmlns="http://www.w3.org/2000/svg" width="400" height="600" viewBox="0 0 400 600">
  <rect width="400" height="600" fill="#3A2A4A"/>
  <g clip-path="url(#cover-clip)">
    <circle cx="342" cy="56" r="20" fill="#F5F0E8" opacity="0.17"/>
<circle cx="35" cy="275" r="18" fill="none" stroke="#F5F0E8" stroke-width="1" opacity="0.20"/>
<circle cx="108" cy="134" r="16" fill="none" stroke="#F5F0E8" stroke-width="1" opacity="0.18"/>
<circle cx="181" cy="353" r="14" fill="#F5F0E8" opacity="0.11"/>
<circle cx="254" cy="212" r="12" fill="none" stroke="#F5F0E8" stroke-width="1" opacity="0.14"/>
<circle cx="327" cy="71" r="10" fill="none" stroke="#F5F0E8" stroke-width="1" opacity="0.12"/>
<circle cx="20" cy="290" r="8" fill="#F5F0E8" opacity="0.05"/>
<circle cx="93" cy="149" r="6" fill="none" stroke="#F5F0E8" stroke-width="1" opacity="0.23"/>
<circle cx="166" cy="368" r="4" fill="none" stroke="#F5F0E8" stroke-width="1" opacity="0.21"/>
<circle cx="239" cy="227" r="27" fill="#F5F0E8" opacity="0.14"/>
<circle cx="312" cy="86" r="25" fill="none" stroke="#F5F0E8" stroke-width="1" opacity="0.17"/>
<circle cx="385" cy="305" r="23" fill="none" stroke="#F5F0E8" stroke-width="1" opacity="0.15"/>
<circle cx="78" cy="164" r="21" fill="#F5F0E8" opacity="0.08"/>
<circle cx="151" cy="23" r="19" fill="none" stroke="#F5F0E8" stroke-width="1" opacity="0.11"/>
<circle cx="224" cy="242" r="17" fill="none" stroke="#F5F0E8" stroke-width="1" opacity="0.24"/>
<circle cx="297" cy="101" r="15" fill="#F5F0E8" opacity="0.17"/>
<circle cx="370" cy="320" r="13" fill="none" stroke="#F5F0E8" stroke-width="1" opacity="0.20"/>
<circle cx="63" cy="179" r="11" fill="none" stroke="#F5F0E8" stroke-width="1" opacity="0.18"/>
  </g>
  <rect x="0" y="498" width="400" height="104" fill="#3A2A4A" opacity="0.6"/>
<line x1="30" y1="503" x2="370" y2="503" stroke="#F5F0E8" stroke-width="0.5" opacity="0.3"/>
<text x="30" y="518" font-family="Helvetica Neue, Helvetica, Arial, sans-serif" font-size="32" font-weight="700" fill="#F5F0E8" letter-spacing="0.08em" opacity="0.9"><tspan  dy="0">HERR DER DIEBE</tspan></text>
<text x="30" y="566" font-family="Helvetica Neue, Helvetica, Arial, sans-serif" font-size="14" font-weight="400" fill="#F5F0E8" letter-spacing="0.04em" opacity="0.55">Cornelia Funke</text>
  <rect x="0" y="0" width="6" height="600" fill="#6A4A8A" opacity="0.25"/><line x1="6" y1="0" x2="6" y2="600" stroke="#F5F0E8" stroke-width="0.5" opacity="0.15"/>
  <clipPath id="cover-clip">
    <rect width="400" height="600"/>
  </clipPath>
</svg>