<svg xmlns="http://www.w3.org/2000/svg" width="400" height="600" viewBox="0 0 400 600">
  <rect width="400" height="600" fill="#0A1A2A"/>
  <g clip-path="url(#cover-clip)">
    <line x1="-300" y1="0" x2="-900" y2="600" stroke="#C75B3A" stroke-width="1.5" opacity="0.18"/>
<line x1="-190" y1="0" x2="-790" y2="600" stroke="#C75B3A" stroke-width="2.3" opacity="0.16"/>
<line x1="-80" y1="0" x2="-680" y2="600" stroke="#C75B3A" stroke-width="3.1" opacity="0.14"/>
<line x1="30" y1="0" x2="-570" y2="600" stroke="#C75B3A" stroke-width="1.5" opacity="0.12"/>
<line x1="140" y1="0" x2="-460" y2="600" stroke="#C75B3A" stroke-width="2.3" opacity="0.10"/>
<line x1="250" y1="0" x2="-350" y2="600" stroke="#C75B3A" stroke-width="3.1" opacity="0.08"/>
<line x1="360" y1="0" x2="-240" y2="600" stroke="#C75B3A" stroke-width="1.5" opacity="0.10"/>
<line x1="470" y1="0" x2="-130" y2="600" stroke="#C75B3A" stroke-width="2.3" opacity="0.12"/>
<line x1="580" y1="0" x2="-20" y2="600" stroke="#C75B3A" stroke-width="3.1" opacity="0.14"/>
<line x1="690" y1="0" x2="90" y2="600" stroke="#C75B3A" stroke-width="1.5" opacity="0.16"/>
<line x1="800" y1="0" x2="200" y2="600" stroke="#C75B3A" stroke-width="2.3" opacity="0.18"/>
  </g>
  <rect x="0" y="466" width="400" height="134" fill="#0A1A2A" opacity="0.6"/>
<line x1="30" y1="471" x2="370" y2="471" stroke="#C75B3A" stroke-width="0.5" opacity="0.3"/>
<text x="30" y="484" font-family="Helvetica Neue, Helvetica, Arial, sans-serif" font-size="28" font-weight="700" fill="#C75B3A" letter-spacing="0.08em" opacity="0.9"><tspan  dy="0">INADEQUATE</tspan><tspan x="30" dy="35">EQUILIBRIA</tspan></text>
<text x="30" y="562" font-family="Helvetica Neue, Helvetica, Arial, sans-serif" font-size="14" font-weight="400" fill="#C75B3A" letter-spacing="0.04em" opacity="0.55">Eliezer Yudkowsky</text>
  <rect x="0" y="0" width="6" height="600" fill="#2A4A6A" opacity="0.25"/><line x1="6" y1="0" x2="6" y2="600" stroke="#C75B3A" stroke-width="0.5" opacity="0.15"/>
  <clipPath id="cover-clip">
    <rect width="400" height="600"/>
  </clipPath>
</svg>