<svg xmlns="http://www.w3.org/2000/svg" width="400" height="600" viewBox="0 0 400 600">
  <rect width="400" height="600" fill="#5A2A2A"/>
  <g clip-path="url(#cover-clip)">
    <path d="M 0,44 L 8,39 L 16,34 L 24,31 L 32,28 L 40,26 L 48,26 L 56,27 L 64,29 L 72,32 L 80,36 L 88,41 L 96,47 L 104,53 L 112,59 L 120,65 L 128,72 L 136,77 L 144,83 L 152,87 L 160,90 L 168,93 L 176,94 L 184,94 L 192,93 L 200,90 L 208,87 L 216,82 L 224,77 L 232,71 L 240,65 L 248,59 L 256,52 L 264,46 L 272,41 L 280,36 L 288,32 L 296,29 L 304,27 L 312,26 L 320,26 L 328,28 L 336,31 L 344,35 L 352,39 L 360,45 L 368,51 L 376,57 L 384,63 L 392,70 L 400,76 L 408,81" fill="none" stroke="#D4A84B" stroke-width="1.5" opacity="0.10"/>
<path d="M 0,139 L 8,138 L 16,136 L 24,133 L 32,129 L 40,124 L 48,119 L 56,112 L 64,106 L 72,100 L 80,94 L 88,88 L 96,83 L 104,78 L 112,75 L 120,72 L 128,71 L 136,71 L 144,72 L 152,75 L 160,78 L 168,82 L 176,88 L 184,93 L 192,100 L 200,106 L 208,112 L 216,118 L 224,124 L 232,129 L 240,133 L 248,136 L 256,138 L 264,139 L 272,139 L 280,137 L 288,134 L 296,131 L 304,126 L 312,121 L 320,115 L 328,108 L 336,102 L 344,96 L 352,90 L 360,84 L 368,80 L 376,76 L 384,73 L 392,71 L 400,71 L 408,72" fill="none" stroke="#D4A84B" stroke-width="2.5" opacity="0.12"/>
<path d="M 0,145 L 8,138 L 16,133 L 24,127 L 32,123 L 40,120 L 48,117 L 56,116 L 64,116 L 72,117 L 80,120 L 88,123 L 96,128 L 104,133 L 112,139 L 120,145 L 128,151 L 136,157 L 144,164 L 152,169 L 160,174 L 168,178 L 176,181 L 184,183 L 192,184 L 200,184 L 208,182 L 216,179 L 224,175 L 232,171 L 240,165 L 248,159 L 256,153 L 264,147 L 272,140 L 280,135 L 288,129 L 296,124 L 304,121 L 312,118 L 320,116 L 328,116 L 336,117 L 344,119 L 352,122 L 360,126 L 368,131 L 376,137 L 384,143 L 392,149 L 400,155 L 408,162" fill="none" stroke="#D4A84B" stroke-width="1.5" opacity="0.14"/>
<path d="M 0,162 L 8,165 L 16,168 L 24,173 L 32,178 L 40,184 L 48,190 L 56,196 L 64,203 L 72,209 L 80,214 L 88,219 L 96,223 L 104,226 L 112,228 L 120,229 L 128,229 L 136,227 L 144,224 L 152,220 L 160,216 L 168,210 L 176,204 L 184,198 L 192,192 L 200,185 L 208,179 L 216,174 L 224,169 L 232,166 L 240,163 L 248,161 L 256,161 L 264,162 L 272,164 L 280,167 L 288,171 L 296,176 L 304,182 L 312,188 L 320,194 L 328,200 L 336,207 L 344,212 L 352,218 L 360,222 L 368,225 L 376,228 L 384,229 L 392,229 L 400,228 L 408,225" fill="none" stroke="#D4A84B" stroke-width="2.5" opacity="0.16"/>
<path d="M 0,254 L 8,259 L 16,264 L 24,268 L 32,271 L 40,273 L 48,274 L 56,274 L 64,272 L 72,269 L 80,265 L 88,261 L 96,255 L 104,249 L 112,243 L 120,237 L 128,230 L 136,224 L 144,219 L 152,214 L 160,211 L 168,208 L 176,206 L 184,206 L 192,207 L 200,209 L 208,212 L 216,216 L 224,221 L 232,227 L 240,233 L 248,239 L 256,246 L 264,252 L 272,258 L 280,263 L 288,267 L 296,270 L 304,273 L 312,274 L 320,274 L 328,273 L 336,270 L 344,267 L 352,262 L 360,257 L 368,251 L 376,245 L 384,239 L 392,232 L 400,226 L 408,221" fill="none" stroke="#D4A84B" stroke-width="1.5" opacity="0.17"/>
<path d="M 0,314 L 8,310 L 16,306 L 24,300 L 32,294 L 40,288 L 48,281 L 56,275 L 64,269 L 72,264 L 80,259 L 88,256 L 96,253 L 104,251 L 112,251 L 120,252 L 128,254 L 136,257 L 144,261 L 152,266 L 160,272 L 168,278 L 176,284 L 184,291 L 192,297 L 200,303 L 208,308 L 216,312 L 224,315 L 232,318 L 240,319 L 248,319 L 256,318 L 264,315 L 272,312 L 280,307 L 288,302 L 296,296 L 304,290 L 312,284 L 320,277 L 328,271 L 336,266 L 344,261 L 352,257 L 360,254 L 368,252 L 376,251 L 384,251 L 392,253 L 400,256 L 408,260" fill="none" stroke="#D4A84B" stroke-width="2.5" opacity="0.19"/>
<path d="M 0,333 L 8,340 L 16,346 L 24,351 L 32,356 L 40,359 L 48,362 L 56,364 L 64,364 L 72,363 L 80,361 L 88,358 L 96,354 L 104,349 L 112,343 L 120,337 L 128,331 L 136,324 L 144,318 L 152,313 L 160,307 L 168,303 L 176,300 L 184,297 L 192,296 L 200,296 L 208,297 L 216,300 L 224,303 L 232,308 L 240,313 L 248,319 L 256,325 L 264,331 L 272,338 L 280,344 L 288,349 L 296,354 L 304,358 L 312,361 L 320,363 L 328,364 L 336,364 L 344,362 L 352,359 L 360,355 L 368,351 L 376,345 L 384,339 L 392,333 L 400,327 L 408,320" fill="none" stroke="#D4A84B" stroke-width="1.5" opacity="0.21"/>
<path d="M 0,408 L 8,406 L 16,403 L 24,399 L 32,394 L 40,388 L 48,382 L 56,376 L 64,369 L 72,363 L 80,357 L 88,352 L 96,348 L 104,345 L 112,342 L 120,341 L 128,341 L 136,342 L 144,345 L 152,348 L 160,353 L 168,358 L 176,364 L 184,370 L 192,376 L 200,383 L 208,389 L 216,394 L 224,399 L 232,403 L 240,406 L 248,408 L 256,409 L 264,409 L 272,407 L 280,404 L 288,400 L 296,396 L 304,390 L 312,384 L 320,378 L 328,371 L 336,365 L 344,359 L 352,354 L 360,349 L 368,346 L 376,343 L 384,341 L 392,341 L 400,342 L 408,344" fill="none" stroke="#D4A84B" stroke-width="2.5" opacity="0.23"/>
  </g>
  <rect x="0" y="466" width="400" height="134" fill="#5A2A2A" opacity="0.6"/>
<line x1="30" y1="471" x2="370" y2="471" stroke="#D4A84B" stroke-width="0.5" opacity="0.3"/>
<text x="30" y="484" font-family="Helvetica Neue, Helvetica, Arial, sans-serif" font-size="28" font-weight="700" fill="#D4A84B" letter-spacing="0.08em" opacity="0.9"><tspan  dy="0">INVENTING THE</tspan><tspan x="30" dy="35">INDIVIDUAL</tspan></text>
<text x="30" y="562" font-family="Helvetica Neue, Helvetica, Arial, sans-serif" font-size="14" font-weight="400" fill="#D4A84B" letter-spacing="0.04em" opacity="0.55">Larry Siedentop</text>
  <rect x="0" y="0" width="6" height="600" fill="#8A4A4A" opacity="0.25"/><line x1="6" y1="0" x2="6" y2="600" stroke="#D4A84B" stroke-width="0.5" opacity="0.15"/>
  <clipPath id="cover-clip">
    <rect width="400" height="600"/>
  </clipPath>
</svg>