<svg xmlns="http://www.w3.org/2000/svg" width="400" height="600" viewBox="0 0 400 600">
  <rect width="400" height="600" fill="#0A1A2A"/>
  <g clip-path="url(#cover-clip)">
    <path d="M 245.6,210.0 L 245.4,213.3 L 244.6,216.6 L 243.4,219.9 L 241.7,223.0 L 239.5,226.0 L 236.9,228.8 L 233.9,231.4 L 230.5,233.7 L 226.8,235.8 L 222.8,237.6 L 218.5,239.2 L 214.1,240.4 L 209.5,241.2 L 204.8,241.7 L 200.0,241.9 L 195.2,241.7 L 190.5,241.2 L 185.9,240.4 L 181.5,239.2 L 177.2,237.6 L 173.2,235.8 L 169.5,233.7 L 166.1,231.4 L 163.1,228.8 L 160.5,226.0 L 158.3,223.0 L 156.6,219.9 L 155.4,216.6 L 154.6,213.3 L 154.4,210.0 L 154.6,206.7 L 155.4,203.4 L 156.6,200.1 L 158.3,197.0 L 160.5,194.0 L 163.1,191.2 L 166.1,188.6 L 169.5,186.3 L 173.2,184.2 L 177.2,182.4 L 181.5,180.8 L 185.9,179.6 L 190.5,178.8 L 195.2,178.3 L 200.0,178.1 L 204.8,178.3 L 209.5,178.8 L 214.1,179.6 L 218.5,180.8 L 222.8,182.4 L 226.8,184.2 L 230.5,186.3 L 233.9,188.6 L 236.9,191.2 L 239.5,194.0 L 241.7,197.0 L 243.4,200.1 L 244.6,203.4 L 245.4,206.7 L 245.6,210.0 Z" fill="none" stroke="#C75B3A" stroke-width="1.2" opacity="0.08"/>
<path d="M 273.6,210.0 L 273.2,215.4 L 272.0,220.7 L 270.0,225.9 L 267.2,231.0 L 263.7,235.8 L 259.5,240.3 L 254.7,244.5 L 249.2,248.3 L 243.3,251.7 L 236.8,254.6 L 229.9,257.1 L 222.7,259.0 L 215.3,260.4 L 207.7,261.2 L 200.0,261.5 L 192.3,261.2 L 184.7,260.4 L 177.3,259.0 L 170.1,257.1 L 163.2,254.6 L 156.7,251.7 L 150.8,248.3 L 145.3,244.5 L 140.5,240.3 L 136.3,235.8 L 132.8,231.0 L 130.0,225.9 L 128.0,220.7 L 126.8,215.4 L 126.4,210.0 L 126.8,204.6 L 128.0,199.3 L 130.0,194.1 L 132.8,189.0 L 136.3,184.2 L 140.5,179.7 L 145.3,175.5 L 150.8,171.7 L 156.7,168.3 L 163.2,165.4 L 170.1,162.9 L 177.3,161.0 L 184.7,159.6 L 192.3,158.8 L 200.0,158.5 L 207.7,158.8 L 215.3,159.6 L 222.7,161.0 L 229.9,162.9 L 236.8,165.4 L 243.3,168.3 L 249.2,171.7 L 254.7,175.5 L 259.5,179.7 L 263.7,184.2 L 267.2,189.0 L 270.0,194.1 L 272.0,199.3 L 273.2,204.6 L 273.6,210.0 Z" fill="none" stroke="#C75B3A" stroke-width="1.2" opacity="0.12"/>
<path d="M 301.6,210.0 L 301.0,217.4 L 299.4,224.8 L 296.6,232.0 L 292.8,238.9 L 288.0,245.6 L 282.2,251.8 L 275.5,257.6 L 268.0,262.9 L 259.7,267.5 L 250.8,271.6 L 241.3,275.0 L 231.4,277.6 L 221.1,279.6 L 210.6,280.7 L 200.0,281.1 L 189.4,280.7 L 178.9,279.6 L 168.6,277.6 L 158.7,275.0 L 149.2,271.6 L 140.3,267.5 L 132.0,262.9 L 124.5,257.6 L 117.8,251.8 L 112.0,245.6 L 107.2,238.9 L 103.4,232.0 L 100.6,224.8 L 99.0,217.4 L 98.4,210.0 L 99.0,202.6 L 100.6,195.2 L 103.4,188.0 L 107.2,181.1 L 112.0,174.4 L 117.8,168.2 L 124.5,162.4 L 132.0,157.1 L 140.3,152.5 L 149.2,148.4 L 158.7,145.0 L 168.6,142.4 L 178.9,140.4 L 189.4,139.3 L 200.0,138.9 L 210.6,139.3 L 221.1,140.4 L 231.4,142.4 L 241.3,145.0 L 250.8,148.4 L 259.7,152.5 L 268.0,157.1 L 275.5,162.4 L 282.2,168.2 L 288.0,174.4 L 292.8,181.1 L 296.6,188.0 L 299.4,195.2 L 301.0,202.6 L 301.6,210.0 Z" fill="none" stroke="#C75B3A" stroke-width="1.2" opacity="0.16"/>
<path d="M 329.6,210.0 L 328.9,219.5 L 326.8,228.9 L 323.3,238.0 L 318.4,246.9 L 312.2,255.4 L 304.9,263.3 L 296.3,270.7 L 286.7,277.4 L 276.2,283.4 L 264.8,288.6 L 252.7,292.9 L 240.0,296.3 L 226.9,298.7 L 213.5,300.2 L 200.0,300.7 L 186.5,300.2 L 173.1,298.7 L 160.0,296.3 L 147.3,292.9 L 135.2,288.6 L 123.8,283.4 L 113.3,277.4 L 103.7,270.7 L 95.1,263.3 L 87.8,255.4 L 81.6,246.9 L 76.7,238.0 L 73.2,228.9 L 71.1,219.5 L 70.4,210.0 L 71.1,200.5 L 73.2,191.1 L 76.7,182.0 L 81.6,173.1 L 87.8,164.6 L 95.1,156.7 L 103.7,149.3 L 113.3,142.6 L 123.8,136.6 L 135.2,131.4 L 147.3,127.1 L 160.0,123.7 L 173.1,121.3 L 186.5,119.8 L 200.0,119.3 L 213.5,119.8 L 226.9,121.3 L 240.0,123.7 L 252.7,127.1 L 264.8,131.4 L 276.2,136.6 L 286.7,142.6 L 296.3,149.3 L 304.9,156.7 L 312.2,164.6 L 318.4,173.1 L 323.3,182.0 L 326.8,191.1 L 328.9,200.5 L 329.6,210.0 Z" fill="none" stroke="#C75B3A" stroke-width="1.2" opacity="0.20"/>
<path d="M 357.6,210.0 L 356.7,221.5 L 354.2,232.9 L 349.9,244.1 L 344.0,254.9 L 336.5,265.2 L 327.5,274.8 L 317.1,283.8 L 305.5,292.0 L 292.6,299.3 L 278.8,305.5 L 264.1,310.8 L 248.7,314.9 L 232.8,317.9 L 216.5,319.7 L 200.0,320.3 L 183.5,319.7 L 167.2,317.9 L 151.3,314.9 L 135.9,310.8 L 121.2,305.5 L 107.4,299.3 L 94.5,292.0 L 82.9,283.8 L 72.5,274.8 L 63.5,265.2 L 56.0,254.9 L 50.1,244.1 L 45.8,232.9 L 43.3,221.5 L 42.4,210.0 L 43.3,198.5 L 45.8,187.1 L 50.1,175.9 L 56.0,165.1 L 63.5,154.8 L 72.5,145.2 L 82.9,136.2 L 94.5,128.0 L 107.4,120.7 L 121.2,114.5 L 135.9,109.2 L 151.3,105.1 L 167.2,102.1 L 183.5,100.3 L 200.0,99.7 L 216.5,100.3 L 232.8,102.1 L 248.7,105.1 L 264.1,109.2 L 278.8,114.5 L 292.6,120.7 L 305.5,128.0 L 317.1,136.2 L 327.5,145.2 L 336.5,154.8 L 344.0,165.1 L 349.9,175.9 L 354.2,187.1 L 356.7,198.5 L 357.6,210.0 Z" fill="none" stroke="#C75B3A" stroke-width="1.2" opacity="0.24"/>
<path d="M 385.6,210.0 L 384.6,223.6 L 381.5,237.0 L 376.5,250.1 L 369.6,262.8 L 360.7,275.0 L 350.2,286.4 L 337.9,296.9 L 324.2,306.6 L 309.1,315.1 L 292.8,322.5 L 275.5,328.7 L 257.4,333.6 L 238.6,337.1 L 219.4,339.2 L 200.0,339.9 L 180.6,339.2 L 161.4,337.1 L 142.6,333.6 L 124.5,328.7 L 107.2,322.5 L 90.9,315.1 L 75.8,306.6 L 62.1,296.9 L 49.8,286.4 L 39.3,275.0 L 30.4,262.8 L 23.5,250.1 L 18.5,237.0 L 15.4,223.6 L 14.4,210.0 L 15.4,196.4 L 18.5,183.0 L 23.5,169.9 L 30.4,157.2 L 39.3,145.0 L 49.8,133.6 L 62.1,123.1 L 75.8,113.4 L 90.9,104.9 L 107.2,97.5 L 124.5,91.3 L 142.6,86.4 L 161.4,82.9 L 180.6,80.8 L 200.0,80.1 L 219.4,80.8 L 238.6,82.9 L 257.4,86.4 L 275.5,91.3 L 292.8,97.5 L 309.1,104.9 L 324.2,113.4 L 337.9,123.1 L 350.2,133.6 L 360.7,145.0 L 369.6,157.2 L 376.5,169.9 L 381.5,183.0 L 384.6,196.4 L 385.6,210.0 Z" fill="none" stroke="#C75B3A" stroke-width="1.2" opacity="0.28"/>
  </g>
  <rect x="0" y="466" width="400" height="134" fill="#0A1A2A" opacity="0.6"/>
<line x1="30" y1="471" x2="370" y2="471" stroke="#C75B3A" stroke-width="0.5" opacity="0.3"/>
<text x="30" y="484" font-family="Helvetica Neue, Helvetica, Arial, sans-serif" font-size="28" font-weight="700" fill="#C75B3A" letter-spacing="0.08em" opacity="0.9"><tspan  dy="0">MAP AND</tspan><tspan x="30" dy="35">TERRITORY</tspan></text>
<text x="30" y="562" font-family="Helvetica Neue, Helvetica, Arial, sans-serif" font-size="14" font-weight="400" fill="#C75B3A" letter-spacing="0.04em" opacity="0.55">Eliezer Yudkowsky</text>
  <rect x="0" y="0" width="6" height="600" fill="#2A4A6A" opacity="0.25"/><line x1="6" y1="0" x2="6" y2="600" stroke="#C75B3A" stroke-width="0.5" opacity="0.15"/>
  <clipPath id="cover-clip">
    <rect width="400" height="600"/>
  </clipPath>
</svg>