<svg xmlns="http://www.w3.org/2000/svg" width="400" height="600" viewBox="0 0 400 600">
  <rect width="400" height="600" fill="#2A2A3A"/>
  <g clip-path="url(#cover-clip)">
    <rect x="4" y="169" width="20" height="338" fill="#E8A870" opacity="0.12"/>
<rect x="36" y="208" width="14" height="386" fill="#E8A870" opacity="0.16"/>
<rect x="67" y="38" width="9" height="435" fill="#E8A870" opacity="0.20"/>
<rect x="89" y="78" width="22" height="109" fill="#E8A870" opacity="0.24"/>
<rect x="120" y="118" width="16" height="158" fill="#E8A870" opacity="0.08"/>
<rect x="152" y="158" width="10" height="206" fill="#E8A870" opacity="0.12"/>
<rect x="174" y="198" width="24" height="255" fill="#E8A870" opacity="0.16"/>
<rect x="205" y="238" width="18" height="304" fill="#E8A870" opacity="0.20"/>
<rect x="237" y="68" width="12" height="352" fill="#E8A870" opacity="0.24"/>
<rect x="259" y="108" width="26" height="401" fill="#E8A870" opacity="0.08"/>
<rect x="290" y="148" width="20" height="450" fill="#E8A870" opacity="0.12"/>
<rect x="321" y="188" width="14" height="124" fill="#E8A870" opacity="0.16"/>
<rect x="353" y="227" width="9" height="172" fill="#E8A870" opacity="0.20"/>
<rect x="375" y="57" width="22" height="221" fill="#E8A870" opacity="0.24"/>
  </g>
  <rect x="0" y="466" width="400" height="134" fill="#2A2A3A" opacity="0.6"/>
<line x1="30" y1="471" x2="370" y2="471" stroke="#E8A870" stroke-width="0.5" opacity="0.3"/>
<text x="30" y="484" font-family="Helvetica Neue, Helvetica, Arial, sans-serif" font-size="28" font-weight="700" fill="#E8A870" letter-spacing="0.08em" opacity="0.9"><tspan  dy="0">ON WHAT MATTERS,</tspan><tspan x="30" dy="35">VOL. 2</tspan></text>
<text x="30" y="562" font-family="Helvetica Neue, Helvetica, Arial, sans-serif" font-size="14" font-weight="400" fill="#E8A870" letter-spacing="0.04em" opacity="0.55">Derek Parfit</text>
  <rect x="0" y="0" width="6" height="600" fill="#4A4A6A" opacity="0.25"/><line x1="6" y1="0" x2="6" y2="600" stroke="#E8A870" stroke-width="0.5" opacity="0.15"/>
  <clipPath id="cover-clip">
    <rect width="400" height="600"/>
  </clipPath>
</svg>