<svg xmlns="http://www.w3.org/2000/svg" width="400" height="600" viewBox="0 0 400 600">
  <rect width="400" height="600" fill="#1A1A1A"/>
  <g clip-path="url(#cover-clip)">
    <path d="M 240.1,210.0 L 239.9,212.9 L 239.2,215.8 L 238.1,218.7 L 236.6,221.4 L 234.7,224.0 L 232.4,226.5 L 229.8,228.8 L 226.8,230.9 L 223.6,232.7 L 220.0,234.3 L 216.3,235.6 L 212.4,236.7 L 208.3,237.4 L 204.2,237.9 L 200.0,238.1 L 195.8,237.9 L 191.7,237.4 L 187.6,236.7 L 183.7,235.6 L 180.0,234.3 L 176.4,232.7 L 173.2,230.9 L 170.2,228.8 L 167.6,226.5 L 165.3,224.0 L 163.4,221.4 L 161.9,218.7 L 160.8,215.8 L 160.1,212.9 L 159.9,210.0 L 160.1,207.1 L 160.8,204.2 L 161.9,201.3 L 163.4,198.6 L 165.3,196.0 L 167.6,193.5 L 170.2,191.2 L 173.2,189.1 L 176.4,187.3 L 180.0,185.7 L 183.7,184.4 L 187.6,183.3 L 191.7,182.6 L 195.8,182.1 L 200.0,181.9 L 204.2,182.1 L 208.3,182.6 L 212.4,183.3 L 216.3,184.4 L 220.0,185.7 L 223.6,187.3 L 226.8,189.1 L 229.8,191.2 L 232.4,193.5 L 234.7,196.0 L 236.6,198.6 L 238.1,201.3 L 239.2,204.2 L 239.9,207.1 L 240.1,210.0 Z" fill="none" stroke="#E07856" stroke-width="1.2" opacity="0.08"/>
<path d="M 268.1,210.0 L 267.7,215.0 L 266.6,219.9 L 264.8,224.7 L 262.2,229.4 L 259.0,233.8 L 255.1,238.0 L 250.6,241.9 L 245.6,245.4 L 240.0,248.6 L 234.0,251.3 L 227.7,253.5 L 221.0,255.3 L 214.2,256.6 L 207.1,257.4 L 200.0,257.7 L 192.9,257.4 L 185.8,256.6 L 179.0,255.3 L 172.3,253.5 L 166.0,251.3 L 160.0,248.6 L 154.4,245.4 L 149.4,241.9 L 144.9,238.0 L 141.0,233.8 L 137.8,229.4 L 135.2,224.7 L 133.4,219.9 L 132.3,215.0 L 131.9,210.0 L 132.3,205.0 L 133.4,200.1 L 135.2,195.3 L 137.8,190.6 L 141.0,186.2 L 144.9,182.0 L 149.4,178.1 L 154.4,174.6 L 160.0,171.4 L 166.0,168.7 L 172.3,166.5 L 179.0,164.7 L 185.8,163.4 L 192.9,162.6 L 200.0,162.3 L 207.1,162.6 L 214.2,163.4 L 221.0,164.7 L 227.7,166.5 L 234.0,168.7 L 240.0,171.4 L 245.6,174.6 L 250.6,178.1 L 255.1,182.0 L 259.0,186.2 L 262.2,190.6 L 264.8,195.3 L 266.6,200.1 L 267.7,205.0 L 268.1,210.0 Z" fill="none" stroke="#E07856" stroke-width="1.2" opacity="0.12"/>
<path d="M 296.1,210.0 L 295.6,217.0 L 294.0,224.0 L 291.4,230.8 L 287.8,237.4 L 283.2,243.6 L 277.7,249.5 L 271.4,255.0 L 264.3,260.0 L 256.5,264.4 L 248.0,268.2 L 239.1,271.4 L 229.7,274.0 L 220.0,275.8 L 210.0,276.9 L 200.0,277.3 L 190.0,276.9 L 180.0,275.8 L 170.3,274.0 L 160.9,271.4 L 152.0,268.2 L 143.5,264.4 L 135.7,260.0 L 128.6,255.0 L 122.3,249.5 L 116.8,243.6 L 112.2,237.4 L 108.6,230.8 L 106.0,224.0 L 104.4,217.0 L 103.9,210.0 L 104.4,203.0 L 106.0,196.0 L 108.6,189.2 L 112.2,182.6 L 116.8,176.4 L 122.3,170.5 L 128.6,165.0 L 135.7,160.0 L 143.5,155.6 L 152.0,151.8 L 160.9,148.6 L 170.3,146.0 L 180.0,144.2 L 190.0,143.1 L 200.0,142.7 L 210.0,143.1 L 220.0,144.2 L 229.7,146.0 L 239.1,148.6 L 248.0,151.8 L 256.5,155.6 L 264.3,160.0 L 271.4,165.0 L 277.7,170.5 L 283.2,176.4 L 287.8,182.6 L 291.4,189.2 L 294.0,196.0 L 295.6,203.0 L 296.1,210.0 Z" fill="none" stroke="#E07856" stroke-width="1.2" opacity="0.16"/>
<path d="M 324.1,210.0 L 323.4,219.1 L 321.4,228.1 L 318.0,236.8 L 313.4,245.3 L 307.5,253.4 L 300.4,261.1 L 292.2,268.1 L 283.0,274.5 L 272.9,280.3 L 262.0,285.2 L 250.5,289.4 L 238.3,292.6 L 225.8,295.0 L 213.0,296.4 L 200.0,296.9 L 187.0,296.4 L 174.2,295.0 L 161.7,292.6 L 149.5,289.4 L 138.0,285.2 L 127.1,280.3 L 117.0,274.5 L 107.8,268.1 L 99.6,261.1 L 92.5,253.4 L 86.6,245.3 L 82.0,236.8 L 78.6,228.1 L 76.6,219.1 L 75.9,210.0 L 76.6,200.9 L 78.6,191.9 L 82.0,183.2 L 86.6,174.7 L 92.5,166.6 L 99.6,158.9 L 107.8,151.9 L 117.0,145.5 L 127.1,139.7 L 138.0,134.8 L 149.5,130.6 L 161.7,127.4 L 174.2,125.0 L 187.0,123.6 L 200.0,123.1 L 213.0,123.6 L 225.8,125.0 L 238.3,127.4 L 250.5,130.6 L 262.0,134.8 L 272.9,139.7 L 283.0,145.5 L 292.2,151.9 L 300.4,158.9 L 307.5,166.6 L 313.4,174.7 L 318.0,183.2 L 321.4,191.9 L 323.4,200.9 L 324.1,210.0 Z" fill="none" stroke="#E07856" stroke-width="1.2" opacity="0.20"/>
<path d="M 352.1,210.0 L 351.3,221.1 L 348.8,232.1 L 344.6,242.9 L 338.9,253.3 L 331.7,263.2 L 323.0,272.6 L 313.0,281.2 L 301.8,289.1 L 289.4,296.1 L 276.0,302.2 L 261.9,307.3 L 247.0,311.2 L 231.6,314.1 L 215.9,315.9 L 200.0,316.5 L 184.1,315.9 L 168.4,314.1 L 153.0,311.2 L 138.1,307.3 L 124.0,302.2 L 110.6,296.1 L 98.2,289.1 L 87.0,281.2 L 77.0,272.6 L 68.3,263.2 L 61.1,253.3 L 55.4,242.9 L 51.2,232.1 L 48.7,221.1 L 47.9,210.0 L 48.7,198.9 L 51.2,187.9 L 55.4,177.1 L 61.1,166.7 L 68.3,156.8 L 77.0,147.4 L 87.0,138.8 L 98.2,130.9 L 110.6,123.9 L 124.0,117.8 L 138.1,112.7 L 153.0,108.8 L 168.4,105.9 L 184.1,104.1 L 200.0,103.5 L 215.9,104.1 L 231.6,105.9 L 247.0,108.8 L 261.9,112.7 L 276.0,117.8 L 289.4,123.9 L 301.8,130.9 L 313.0,138.8 L 323.0,147.4 L 331.7,156.8 L 338.9,166.7 L 344.6,177.1 L 348.8,187.9 L 351.3,198.9 L 352.1,210.0 Z" fill="none" stroke="#E07856" stroke-width="1.2" opacity="0.24"/>
<path d="M 380.1,210.0 L 379.1,223.2 L 376.1,236.2 L 371.3,249.0 L 364.5,261.3 L 356.0,273.0 L 345.7,284.1 L 333.8,294.4 L 320.5,303.7 L 305.9,312.0 L 290.0,319.2 L 273.2,325.2 L 255.6,329.9 L 237.4,333.3 L 218.8,335.4 L 200.0,336.1 L 181.2,335.4 L 162.6,333.3 L 144.4,329.9 L 126.8,325.2 L 110.0,319.2 L 94.1,312.0 L 79.5,303.7 L 66.2,294.4 L 54.3,284.1 L 44.0,273.0 L 35.5,261.3 L 28.7,249.0 L 23.9,236.2 L 20.9,223.2 L 19.9,210.0 L 20.9,196.8 L 23.9,183.8 L 28.7,171.0 L 35.5,158.7 L 44.0,147.0 L 54.3,135.9 L 66.2,125.6 L 79.5,116.3 L 94.1,108.0 L 110.0,100.8 L 126.8,94.8 L 144.4,90.1 L 162.6,86.7 L 181.2,84.6 L 200.0,83.9 L 218.8,84.6 L 237.4,86.7 L 255.6,90.1 L 273.2,94.8 L 290.0,100.8 L 305.9,108.0 L 320.5,116.3 L 333.8,125.6 L 345.7,135.9 L 356.0,147.0 L 364.5,158.7 L 371.3,171.0 L 376.1,183.8 L 379.1,196.8 L 380.1,210.0 Z" fill="none" stroke="#E07856" stroke-width="1.2" opacity="0.28"/>
  </g>
  <rect x="0" y="466" width="400" height="134" fill="#1A1A1A" opacity="0.6"/>
<line x1="30" y1="471" x2="370" y2="471" stroke="#E07856" stroke-width="0.5" opacity="0.3"/>
<text x="30" y="484" font-family="Helvetica Neue, Helvetica, Arial, sans-serif" font-size="28" font-weight="700" fill="#E07856" letter-spacing="0.08em" opacity="0.9"><tspan  dy="0">ON WHAT MATTERS,</tspan><tspan x="30" dy="35">VOL. 1</tspan></text>
<text x="30" y="562" font-family="Helvetica Neue, Helvetica, Arial, sans-serif" font-size="14" font-weight="400" fill="#E07856" letter-spacing="0.04em" opacity="0.55">Derek Parfit</text>
  <rect x="0" y="0" width="6" height="600" fill="#3A3A3A" opacity="0.25"/><line x1="6" y1="0" x2="6" y2="600" stroke="#E07856" stroke-width="0.5" opacity="0.15"/>
  <clipPath id="cover-clip">
    <rect width="400" height="600"/>
  </clipPath>
</svg>