<svg xmlns="http://www.w3.org/2000/svg" width="400" height="600" viewBox="0 0 400 600">
  <rect width="400" height="600" fill="#FAF8F5"/>
  <g clip-path="url(#cover-clip)">
    <circle cx="272" cy="146" r="15" fill="#1A1A1A" opacity="0.17"/>
<circle cx="345" cy="365" r="13" fill="none" stroke="#1A1A1A" stroke-width="1" opacity="0.20"/>
<circle cx="38" cy="224" r="11" fill="none" stroke="#1A1A1A" stroke-width="1" opacity="0.18"/>
<circle cx="111" cy="83" r="9" fill="#1A1A1A" opacity="0.11"/>
<circle cx="64" cy="182" r="7" fill="#1A1A1A" opacity="0.14"/>
<circle cx="137" cy="41" r="5" fill="none" stroke="#1A1A1A" stroke-width="1" opacity="0.17"/>
<circle cx="210" cy="260" r="3" fill="none" stroke="#1A1A1A" stroke-width="1" opacity="0.15"/>
<circle cx="283" cy="119" r="26" fill="#1A1A1A" opacity="0.08"/>
<circle cx="356" cy="338" r="24" fill="none" stroke="#1A1A1A" stroke-width="1" opacity="0.11"/>
<circle cx="49" cy="197" r="22" fill="none" stroke="#1A1A1A" stroke-width="1" opacity="0.24"/>
<circle cx="122" cy="56" r="20" fill="#1A1A1A" opacity="0.17"/>
<circle cx="195" cy="275" r="18" fill="none" stroke="#1A1A1A" stroke-width="1" opacity="0.20"/>
<circle cx="268" cy="134" r="16" fill="none" stroke="#1A1A1A" stroke-width="1" opacity="0.18"/>
<circle cx="341" cy="353" r="14" fill="#1A1A1A" opacity="0.11"/>
<circle cx="34" cy="212" r="12" fill="none" stroke="#1A1A1A" stroke-width="1" opacity="0.14"/>
<circle cx="107" cy="71" r="10" fill="none" stroke="#1A1A1A" stroke-width="1" opacity="0.12"/>
<circle cx="180" cy="290" r="8" fill="#1A1A1A" opacity="0.05"/>
<circle cx="253" cy="149" r="6" fill="none" stroke="#1A1A1A" stroke-width="1" opacity="0.23"/>
  </g>
  <rect x="0" y="498" width="400" height="104" fill="#FAF8F5" opacity="0.6"/>
<line x1="30" y1="503" x2="370" y2="503" stroke="#1A1A1A" stroke-width="0.5" opacity="0.3"/>
<text x="30" y="518" font-family="Helvetica Neue, Helvetica, Arial, sans-serif" font-size="32" font-weight="700" fill="#1A1A1A" letter-spacing="0.08em" opacity="0.9"><tspan  dy="0">OPTIONALITY</tspan></text>
<text x="30" y="566" font-family="Helvetica Neue, Helvetica, Arial, sans-serif" font-size="14" font-weight="400" fill="#1A1A1A" letter-spacing="0.04em" opacity="0.55">Richard Meadows</text>
  <rect x="0" y="0" width="6" height="600" fill="#E0DAD0" opacity="0.25"/><line x1="6" y1="0" x2="6" y2="600" stroke="#1A1A1A" stroke-width="0.5" opacity="0.15"/>
  <clipPath id="cover-clip">
    <rect width="400" height="600"/>
  </clipPath>
</svg>