<svg xmlns="http://www.w3.org/2000/svg" width="400" height="600" viewBox="0 0 400 600">
  <rect width="400" height="600" fill="#1A3A2A"/>
  <g clip-path="url(#cover-clip)">
    <rect x="80" y="20" width="80" height="51" fill="#E8B84A" opacity="0.16"/>
<rect x="320" y="20" width="80" height="51" fill="#E8B84A" opacity="0.22"/>
<rect x="0" y="71" width="80" height="51" fill="#E8B84A" opacity="0.08"/>
<rect x="320" y="71" width="80" height="51" fill="none" stroke="#E8B84A" stroke-width="0.5" opacity="0.1"/>
<rect x="0" y="123" width="80" height="51" fill="#E8B84A" opacity="0.22"/>
<rect x="240" y="123" width="80" height="51" fill="#E8B84A" opacity="0.08"/>
<rect x="240" y="174" width="80" height="51" fill="none" stroke="#E8B84A" stroke-width="0.5" opacity="0.1"/>
<rect x="160" y="226" width="80" height="51" fill="#E8B84A" opacity="0.14"/>
<rect x="80" y="277" width="80" height="51" fill="#E8B84A" opacity="0.06"/>
<rect x="80" y="329" width="80" height="51" fill="#E8B84A" opacity="0.20"/>
<rect x="320" y="329" width="80" height="51" fill="#E8B84A" opacity="0.06"/>
  </g>
  <rect x="0" y="466" width="400" height="134" fill="#1A3A2A" opacity="0.6"/>
<line x1="30" y1="471" x2="370" y2="471" stroke="#E8B84A" stroke-width="0.5" opacity="0.3"/>
<text x="30" y="484" font-family="Helvetica Neue, Helvetica, Arial, sans-serif" font-size="28" font-weight="700" fill="#E8B84A" letter-spacing="0.08em" opacity="0.9"><tspan  dy="0">ORGANIZING</tspan><tspan x="30" dy="35">GENIUS</tspan></text>
<text x="30" y="562" font-family="Helvetica Neue, Helvetica, Arial, sans-serif" font-size="14" font-weight="400" fill="#E8B84A" letter-spacing="0.04em" opacity="0.55">Warren Bennis</text>
  <rect x="0" y="0" width="6" height="600" fill="#2A5A4A" opacity="0.25"/><line x1="6" y1="0" x2="6" y2="600" stroke="#E8B84A" stroke-width="0.5" opacity="0.15"/>
  <clipPath id="cover-clip">
    <rect width="400" height="600"/>
  </clipPath>
</svg>