<svg xmlns="http://www.w3.org/2000/svg" width="400" height="600" viewBox="0 0 400 600">
  <rect width="400" height="600" fill="#3A2A4A"/>
  <g clip-path="url(#cover-clip)">
    <path d="M 232.3,210.0 L 232.1,212.4 L 231.6,214.7 L 230.7,217.0 L 229.5,219.2 L 227.9,221.3 L 226.1,223.3 L 224.0,225.1 L 221.6,226.8 L 219.0,228.3 L 216.1,229.6 L 213.1,230.6 L 210.0,231.5 L 206.7,232.1 L 203.4,232.5 L 200.0,232.6 L 196.6,232.5 L 193.3,232.1 L 190.0,231.5 L 186.9,230.6 L 183.9,229.6 L 181.0,228.3 L 178.4,226.8 L 176.0,225.1 L 173.9,223.3 L 172.1,221.3 L 170.5,219.2 L 169.3,217.0 L 168.4,214.7 L 167.9,212.4 L 167.7,210.0 L 167.9,207.6 L 168.4,205.3 L 169.3,203.0 L 170.5,200.8 L 172.1,198.7 L 173.9,196.7 L 176.0,194.9 L 178.4,193.2 L 181.0,191.7 L 183.9,190.4 L 186.9,189.4 L 190.0,188.5 L 193.3,187.9 L 196.6,187.5 L 200.0,187.4 L 203.4,187.5 L 206.7,187.9 L 210.0,188.5 L 213.1,189.4 L 216.1,190.4 L 219.0,191.7 L 221.6,193.2 L 224.0,194.9 L 226.1,196.7 L 227.9,198.7 L 229.5,200.8 L 230.7,203.0 L 231.6,205.3 L 232.1,207.6 L 232.3,210.0 Z" fill="none" stroke="#F5F0E8" stroke-width="1.2" opacity="0.08"/>
<path d="M 260.3,210.0 L 259.9,214.4 L 259.0,218.8 L 257.3,223.0 L 255.1,227.2 L 252.2,231.1 L 248.8,234.8 L 244.8,238.2 L 240.3,241.4 L 235.4,244.1 L 230.1,246.5 L 224.5,248.5 L 218.6,250.1 L 212.5,251.3 L 206.3,252.0 L 200.0,252.2 L 193.7,252.0 L 187.5,251.3 L 181.4,250.1 L 175.5,248.5 L 169.9,246.5 L 164.6,244.1 L 159.7,241.4 L 155.2,238.2 L 151.2,234.8 L 147.8,231.1 L 144.9,227.2 L 142.7,223.0 L 141.0,218.8 L 140.1,214.4 L 139.7,210.0 L 140.1,205.6 L 141.0,201.2 L 142.7,197.0 L 144.9,192.8 L 147.8,188.9 L 151.2,185.2 L 155.2,181.8 L 159.7,178.6 L 164.6,175.9 L 169.9,173.5 L 175.5,171.5 L 181.4,169.9 L 187.5,168.7 L 193.7,168.0 L 200.0,167.8 L 206.3,168.0 L 212.5,168.7 L 218.6,169.9 L 224.5,171.5 L 230.1,173.5 L 235.4,175.9 L 240.3,178.6 L 244.8,181.8 L 248.8,185.2 L 252.2,188.9 L 255.1,192.8 L 257.3,197.0 L 259.0,201.2 L 259.9,205.6 L 260.3,210.0 Z" fill="none" stroke="#F5F0E8" stroke-width="1.2" opacity="0.12"/>
<path d="M 288.3,210.0 L 287.8,216.5 L 286.3,222.8 L 283.9,229.1 L 280.6,235.1 L 276.4,240.9 L 271.4,246.3 L 265.6,251.3 L 259.1,255.9 L 251.9,260.0 L 244.1,263.5 L 235.9,266.4 L 227.3,268.8 L 218.4,270.4 L 209.2,271.4 L 200.0,271.8 L 190.8,271.4 L 181.6,270.4 L 172.7,268.8 L 164.1,266.4 L 155.9,263.5 L 148.1,260.0 L 140.9,255.9 L 134.4,251.3 L 128.6,246.3 L 123.6,240.9 L 119.4,235.1 L 116.1,229.1 L 113.7,222.8 L 112.2,216.5 L 111.7,210.0 L 112.2,203.5 L 113.7,197.2 L 116.1,190.9 L 119.4,184.9 L 123.6,179.1 L 128.6,173.7 L 134.4,168.7 L 140.9,164.1 L 148.1,160.0 L 155.9,156.5 L 164.1,153.6 L 172.7,151.2 L 181.6,149.6 L 190.8,148.6 L 200.0,148.2 L 209.2,148.6 L 218.4,149.6 L 227.3,151.2 L 235.9,153.6 L 244.1,156.5 L 251.9,160.0 L 259.1,164.1 L 265.6,168.7 L 271.4,173.7 L 276.4,179.1 L 280.6,184.9 L 283.9,190.9 L 286.3,197.2 L 287.8,203.5 L 288.3,210.0 Z" fill="none" stroke="#F5F0E8" stroke-width="1.2" opacity="0.16"/>
<path d="M 316.3,210.0 L 315.6,218.5 L 313.7,226.9 L 310.6,235.2 L 306.2,243.1 L 300.7,250.7 L 294.1,257.8 L 286.4,264.5 L 277.8,270.5 L 268.3,275.8 L 258.1,280.5 L 247.3,284.4 L 235.9,287.4 L 224.2,289.6 L 212.2,290.9 L 200.0,291.4 L 187.8,290.9 L 175.8,289.6 L 164.1,287.4 L 152.7,284.4 L 141.9,280.5 L 131.7,275.8 L 122.2,270.5 L 113.6,264.5 L 105.9,257.8 L 99.3,250.7 L 93.8,243.1 L 89.4,235.2 L 86.3,226.9 L 84.4,218.5 L 83.7,210.0 L 84.4,201.5 L 86.3,193.1 L 89.4,184.8 L 93.8,176.9 L 99.3,169.3 L 105.9,162.2 L 113.6,155.5 L 122.2,149.5 L 131.7,144.2 L 141.9,139.5 L 152.7,135.6 L 164.1,132.6 L 175.8,130.4 L 187.8,129.1 L 200.0,128.6 L 212.2,129.1 L 224.2,130.4 L 235.9,132.6 L 247.3,135.6 L 258.1,139.5 L 268.3,144.2 L 277.8,149.5 L 286.4,155.5 L 294.1,162.2 L 300.7,169.3 L 306.2,176.9 L 310.6,184.8 L 313.7,193.1 L 315.6,201.5 L 316.3,210.0 Z" fill="none" stroke="#F5F0E8" stroke-width="1.2" opacity="0.20"/>
<path d="M 344.3,210.0 L 343.5,220.6 L 341.1,231.0 L 337.2,241.2 L 331.8,251.1 L 324.9,260.5 L 316.7,269.4 L 307.2,277.6 L 296.5,285.0 L 284.8,291.7 L 272.1,297.5 L 258.7,302.3 L 244.6,306.0 L 230.0,308.8 L 215.1,310.4 L 200.0,311.0 L 184.9,310.4 L 170.0,308.8 L 155.4,306.0 L 141.3,302.3 L 127.9,297.5 L 115.2,291.7 L 103.5,285.0 L 92.8,277.6 L 83.3,269.4 L 75.1,260.5 L 68.2,251.1 L 62.8,241.2 L 58.9,231.0 L 56.5,220.6 L 55.7,210.0 L 56.5,199.4 L 58.9,189.0 L 62.8,178.8 L 68.2,168.9 L 75.1,159.5 L 83.3,150.6 L 92.8,142.4 L 103.5,135.0 L 115.2,128.3 L 127.9,122.5 L 141.3,117.7 L 155.4,114.0 L 170.0,111.2 L 184.9,109.6 L 200.0,109.0 L 215.1,109.6 L 230.0,111.2 L 244.6,114.0 L 258.7,117.7 L 272.1,122.5 L 284.8,128.3 L 296.5,135.0 L 307.2,142.4 L 316.7,150.6 L 324.9,159.5 L 331.8,168.9 L 337.2,178.8 L 341.1,189.0 L 343.5,199.4 L 344.3,210.0 Z" fill="none" stroke="#F5F0E8" stroke-width="1.2" opacity="0.24"/>
  </g>
  <rect x="0" y="498" width="400" height="104" fill="#3A2A4A" opacity="0.6"/>
<line x1="30" y1="503" x2="370" y2="503" stroke="#F5F0E8" stroke-width="0.5" opacity="0.3"/>
<text x="30" y="518" font-family="Helvetica Neue, Helvetica, Arial, sans-serif" font-size="32" font-weight="700" fill="#F5F0E8" letter-spacing="0.08em" opacity="0.9"><tspan  dy="0">PLAYING TO WIN</tspan></text>
<text x="30" y="566" font-family="Helvetica Neue, Helvetica, Arial, sans-serif" font-size="14" font-weight="400" fill="#F5F0E8" letter-spacing="0.04em" opacity="0.55">David Sirlin</text>
  <rect x="0" y="0" width="6" height="600" fill="#6A4A8A" opacity="0.25"/><line x1="6" y1="0" x2="6" y2="600" stroke="#F5F0E8" stroke-width="0.5" opacity="0.15"/>
  <clipPath id="cover-clip">
    <rect width="400" height="600"/>
  </clipPath>
</svg>