<svg xmlns="http://www.w3.org/2000/svg" width="400" height="600" viewBox="0 0 400 600">
  <rect width="400" height="600" fill="#5A2A2A"/>
  <g clip-path="url(#cover-clip)">
    <line x1="-300" y1="0" x2="-461" y2="600" stroke="#D4A84B" stroke-width="1.5" opacity="0.18"/>
<line x1="-231" y1="0" x2="-392" y2="600" stroke="#D4A84B" stroke-width="2.3" opacity="0.17"/>
<line x1="-162" y1="0" x2="-323" y2="600" stroke="#D4A84B" stroke-width="3.1" opacity="0.16"/>
<line x1="-94" y1="0" x2="-255" y2="600" stroke="#D4A84B" stroke-width="1.5" opacity="0.14"/>
<line x1="-25" y1="0" x2="-186" y2="600" stroke="#D4A84B" stroke-width="2.3" opacity="0.13"/>
<line x1="44" y1="0" x2="-117" y2="600" stroke="#D4A84B" stroke-width="3.1" opacity="0.12"/>
<line x1="113" y1="0" x2="-48" y2="600" stroke="#D4A84B" stroke-width="1.5" opacity="0.11"/>
<line x1="181" y1="0" x2="20" y2="600" stroke="#D4A84B" stroke-width="2.3" opacity="0.09"/>
<line x1="250" y1="0" x2="89" y2="600" stroke="#D4A84B" stroke-width="3.1" opacity="0.08"/>
<line x1="319" y1="0" x2="158" y2="600" stroke="#D4A84B" stroke-width="1.5" opacity="0.09"/>
<line x1="388" y1="0" x2="227" y2="600" stroke="#D4A84B" stroke-width="2.3" opacity="0.11"/>
<line x1="456" y1="0" x2="295" y2="600" stroke="#D4A84B" stroke-width="3.1" opacity="0.12"/>
<line x1="525" y1="0" x2="364" y2="600" stroke="#D4A84B" stroke-width="1.5" opacity="0.13"/>
<line x1="594" y1="0" x2="433" y2="600" stroke="#D4A84B" stroke-width="2.3" opacity="0.14"/>
<line x1="663" y1="0" x2="502" y2="600" stroke="#D4A84B" stroke-width="3.1" opacity="0.16"/>
<line x1="731" y1="0" x2="570" y2="600" stroke="#D4A84B" stroke-width="1.5" opacity="0.17"/>
<line x1="800" y1="0" x2="639" y2="600" stroke="#D4A84B" stroke-width="2.3" opacity="0.18"/>
  </g>
  <rect x="0" y="495" width="400" height="112" fill="#5A2A2A" opacity="0.6"/>
<line x1="30" y1="500" x2="370" y2="500" stroke="#D4A84B" stroke-width="0.5" opacity="0.3"/>
<text x="30" y="516" font-family="Helvetica Neue, Helvetica, Arial, sans-serif" font-size="38" font-weight="700" fill="#D4A84B" letter-spacing="0.08em" opacity="0.9"><tspan  dy="0">PRESENCE</tspan></text>
<text x="30" y="572" font-family="Helvetica Neue, Helvetica, Arial, sans-serif" font-size="14" font-weight="400" fill="#D4A84B" letter-spacing="0.04em" opacity="0.55">Patsy Rodenburg</text>
  <rect x="0" y="0" width="6" height="600" fill="#8A4A4A" opacity="0.25"/><line x1="6" y1="0" x2="6" y2="600" stroke="#D4A84B" stroke-width="0.5" opacity="0.15"/>
  <clipPath id="cover-clip">
    <rect width="400" height="600"/>
  </clipPath>
</svg>