<svg xmlns="http://www.w3.org/2000/svg" width="400" height="600" viewBox="0 0 400 600">
  <rect width="400" height="600" fill="#FAF8F5"/>
  <g clip-path="url(#cover-clip)">
    <line x1="268" y1="264" x2="748" y2="264" stroke="#1A1A1A" stroke-width="0.8" opacity="0.06"/>
<line x1="268" y1="264" x2="729" y2="399" stroke="#1A1A1A" stroke-width="1.1" opacity="0.11"/>
<line x1="268" y1="264" x2="672" y2="524" stroke="#1A1A1A" stroke-width="1.4" opacity="0.16"/>
<line x1="268" y1="264" x2="582" y2="627" stroke="#1A1A1A" stroke-width="1.7" opacity="0.06"/>
<line x1="268" y1="264" x2="467" y2="701" stroke="#1A1A1A" stroke-width="0.8" opacity="0.11"/>
<line x1="268" y1="264" x2="336" y2="739" stroke="#1A1A1A" stroke-width="1.1" opacity="0.16"/>
<line x1="268" y1="264" x2="200" y2="739" stroke="#1A1A1A" stroke-width="1.4" opacity="0.06"/>
<line x1="268" y1="264" x2="69" y2="701" stroke="#1A1A1A" stroke-width="1.7" opacity="0.11"/>
<line x1="268" y1="264" x2="-46" y2="627" stroke="#1A1A1A" stroke-width="0.8" opacity="0.16"/>
<line x1="268" y1="264" x2="-136" y2="524" stroke="#1A1A1A" stroke-width="1.1" opacity="0.06"/>
<line x1="268" y1="264" x2="-193" y2="399" stroke="#1A1A1A" stroke-width="1.4" opacity="0.11"/>
<line x1="268" y1="264" x2="-212" y2="264" stroke="#1A1A1A" stroke-width="1.7" opacity="0.16"/>
<line x1="268" y1="264" x2="-193" y2="129" stroke="#1A1A1A" stroke-width="0.8" opacity="0.06"/>
<line x1="268" y1="264" x2="-136" y2="4" stroke="#1A1A1A" stroke-width="1.1" opacity="0.11"/>
<line x1="268" y1="264" x2="-46" y2="-99" stroke="#1A1A1A" stroke-width="1.4" opacity="0.16"/>
<line x1="268" y1="264" x2="69" y2="-173" stroke="#1A1A1A" stroke-width="1.7" opacity="0.06"/>
<line x1="268" y1="264" x2="200" y2="-211" stroke="#1A1A1A" stroke-width="0.8" opacity="0.11"/>
<line x1="268" y1="264" x2="336" y2="-211" stroke="#1A1A1A" stroke-width="1.1" opacity="0.16"/>
<line x1="268" y1="264" x2="467" y2="-173" stroke="#1A1A1A" stroke-width="1.4" opacity="0.06"/>
<line x1="268" y1="264" x2="582" y2="-99" stroke="#1A1A1A" stroke-width="1.7" opacity="0.11"/>
<line x1="268" y1="264" x2="672" y2="4" stroke="#1A1A1A" stroke-width="0.8" opacity="0.16"/>
<line x1="268" y1="264" x2="729" y2="129" stroke="#1A1A1A" stroke-width="1.1" opacity="0.06"/>
  </g>
  <rect x="0" y="466" width="400" height="134" fill="#FAF8F5" opacity="0.6"/>
<line x1="30" y1="471" x2="370" y2="471" stroke="#1A1A1A" stroke-width="0.5" opacity="0.3"/>
<text x="30" y="484" font-family="Helvetica Neue, Helvetica, Arial, sans-serif" font-size="28" font-weight="700" fill="#1A1A1A" letter-spacing="0.08em" opacity="0.9"><tspan  dy="0">SENSE AND</tspan><tspan x="30" dy="35">NONSENSE</tspan></text>
<text x="30" y="562" font-family="Helvetica Neue, Helvetica, Arial, sans-serif" font-size="14" font-weight="400" fill="#1A1A1A" letter-spacing="0.04em" opacity="0.55">Kevin Laland &amp; Gillian Brown</text>
  <rect x="0" y="0" width="6" height="600" fill="#E0DAD0" opacity="0.25"/><line x1="6" y1="0" x2="6" y2="600" stroke="#1A1A1A" stroke-width="0.5" opacity="0.15"/>
  <clipPath id="cover-clip">
    <rect width="400" height="600"/>
  </clipPath>
</svg>