<svg xmlns="http://www.w3.org/2000/svg" width="400" height="600" viewBox="0 0 400 600">
  <rect width="400" height="600" fill="#C75B3A"/>
  <g clip-path="url(#cover-clip)">
    <circle cx="102" cy="236" r="25" fill="#FAF8F5" opacity="0.17"/>
<circle cx="175" cy="95" r="23" fill="none" stroke="#FAF8F5" stroke-width="1" opacity="0.20"/>
<circle cx="248" cy="314" r="21" fill="none" stroke="#FAF8F5" stroke-width="1" opacity="0.18"/>
<circle cx="321" cy="173" r="19" fill="#FAF8F5" opacity="0.11"/>
<circle cx="14" cy="32" r="17" fill="none" stroke="#FAF8F5" stroke-width="1" opacity="0.14"/>
<circle cx="87" cy="251" r="15" fill="none" stroke="#FAF8F5" stroke-width="1" opacity="0.12"/>
<circle cx="160" cy="110" r="13" fill="#FAF8F5" opacity="0.05"/>
<circle cx="233" cy="329" r="11" fill="none" stroke="#FAF8F5" stroke-width="1" opacity="0.23"/>
<circle cx="306" cy="188" r="9" fill="none" stroke="#FAF8F5" stroke-width="1" opacity="0.21"/>
<circle cx="379" cy="47" r="7" fill="#FAF8F5" opacity="0.14"/>
<circle cx="72" cy="266" r="5" fill="none" stroke="#FAF8F5" stroke-width="1" opacity="0.17"/>
<circle cx="145" cy="125" r="3" fill="none" stroke="#FAF8F5" stroke-width="1" opacity="0.15"/>
<circle cx="218" cy="344" r="26" fill="#FAF8F5" opacity="0.08"/>
<circle cx="291" cy="203" r="24" fill="none" stroke="#FAF8F5" stroke-width="1" opacity="0.11"/>
<circle cx="364" cy="62" r="22" fill="none" stroke="#FAF8F5" stroke-width="1" opacity="0.24"/>
<circle cx="57" cy="281" r="20" fill="#FAF8F5" opacity="0.17"/>
<circle cx="130" cy="140" r="18" fill="none" stroke="#FAF8F5" stroke-width="1" opacity="0.20"/>
<circle cx="203" cy="359" r="16" fill="none" stroke="#FAF8F5" stroke-width="1" opacity="0.18"/>
  </g>
  <rect x="0" y="458" width="400" height="144" fill="#C75B3A" opacity="0.6"/>
<line x1="30" y1="463" x2="370" y2="463" stroke="#FAF8F5" stroke-width="0.5" opacity="0.3"/>
<text x="30" y="478" font-family="Helvetica Neue, Helvetica, Arial, sans-serif" font-size="32" font-weight="700" fill="#FAF8F5" letter-spacing="0.08em" opacity="0.9"><tspan  dy="0">SKIN IN THE</tspan><tspan x="30" dy="40">GAME</tspan></text>
<text x="30" y="566" font-family="Helvetica Neue, Helvetica, Arial, sans-serif" font-size="14" font-weight="400" fill="#FAF8F5" letter-spacing="0.04em" opacity="0.55">Nassim Nicholas Taleb</text>
  <rect x="0" y="0" width="6" height="600" fill="#982F1A" opacity="0.25"/><line x1="6" y1="0" x2="6" y2="600" stroke="#FAF8F5" stroke-width="0.5" opacity="0.15"/>
  <clipPath id="cover-clip">
    <rect width="400" height="600"/>
  </clipPath>
</svg>