<svg xmlns="http://www.w3.org/2000/svg" width="400" height="600" viewBox="0 0 400 600">
  <rect width="400" height="600" fill="#4A3A2A"/>
  <g clip-path="url(#cover-clip)">
    <line x1="208" y1="244" x2="688" y2="244" stroke="#FAF8F5" stroke-width="0.8" opacity="0.06"/>
<line x1="208" y1="244" x2="651" y2="428" stroke="#FAF8F5" stroke-width="1.1" opacity="0.11"/>
<line x1="208" y1="244" x2="547" y2="583" stroke="#FAF8F5" stroke-width="1.4" opacity="0.16"/>
<line x1="208" y1="244" x2="392" y2="687" stroke="#FAF8F5" stroke-width="1.7" opacity="0.06"/>
<line x1="208" y1="244" x2="208" y2="724" stroke="#FAF8F5" stroke-width="0.8" opacity="0.11"/>
<line x1="208" y1="244" x2="24" y2="687" stroke="#FAF8F5" stroke-width="1.1" opacity="0.16"/>
<line x1="208" y1="244" x2="-131" y2="583" stroke="#FAF8F5" stroke-width="1.4" opacity="0.06"/>
<line x1="208" y1="244" x2="-235" y2="428" stroke="#FAF8F5" stroke-width="1.7" opacity="0.11"/>
<line x1="208" y1="244" x2="-272" y2="244" stroke="#FAF8F5" stroke-width="0.8" opacity="0.16"/>
<line x1="208" y1="244" x2="-235" y2="60" stroke="#FAF8F5" stroke-width="1.1" opacity="0.06"/>
<line x1="208" y1="244" x2="-131" y2="-95" stroke="#FAF8F5" stroke-width="1.4" opacity="0.11"/>
<line x1="208" y1="244" x2="24" y2="-199" stroke="#FAF8F5" stroke-width="1.7" opacity="0.16"/>
<line x1="208" y1="244" x2="208" y2="-236" stroke="#FAF8F5" stroke-width="0.8" opacity="0.06"/>
<line x1="208" y1="244" x2="392" y2="-199" stroke="#FAF8F5" stroke-width="1.1" opacity="0.11"/>
<line x1="208" y1="244" x2="547" y2="-95" stroke="#FAF8F5" stroke-width="1.4" opacity="0.16"/>
<line x1="208" y1="244" x2="651" y2="60" stroke="#FAF8F5" stroke-width="1.7" opacity="0.06"/>
  </g>
  <rect x="0" y="498" width="400" height="104" fill="#4A3A2A" opacity="0.6"/>
<line x1="30" y1="503" x2="370" y2="503" stroke="#FAF8F5" stroke-width="0.5" opacity="0.3"/>
<text x="30" y="518" font-family="Helvetica Neue, Helvetica, Arial, sans-serif" font-size="32" font-weight="700" fill="#FAF8F5" letter-spacing="0.08em" opacity="0.9"><tspan  dy="0">START WITH WHY</tspan></text>
<text x="30" y="566" font-family="Helvetica Neue, Helvetica, Arial, sans-serif" font-size="14" font-weight="400" fill="#FAF8F5" letter-spacing="0.04em" opacity="0.55">Simon Sinek</text>
  <rect x="0" y="0" width="6" height="600" fill="#7A6A5A" opacity="0.25"/><line x1="6" y1="0" x2="6" y2="600" stroke="#FAF8F5" stroke-width="0.5" opacity="0.15"/>
  <clipPath id="cover-clip">
    <rect width="400" height="600"/>
  </clipPath>
</svg>