<svg xmlns="http://www.w3.org/2000/svg" width="400" height="600" viewBox="0 0 400 600">
  <rect width="400" height="600" fill="#1A3A2A"/>
  <g clip-path="url(#cover-clip)">
    <circle cx="57.1" cy="56.0" r="4.5" fill="#E8B84A" opacity="0.12"/>
<circle cx="114.3" cy="56.0" r="8.1" fill="#E8B84A" opacity="0.35"/>
<circle cx="171.4" cy="56.0" r="4.5" fill="#E8B84A" opacity="0.12"/>
<circle cx="228.6" cy="56.0" r="4.5" fill="#E8B84A" opacity="0.12"/>
<circle cx="285.7" cy="56.0" r="4.5" fill="#E8B84A" opacity="0.12"/>
<circle cx="342.9" cy="56.0" r="4.5" fill="#E8B84A" opacity="0.12"/>
<circle cx="57.1" cy="92.0" r="8.1" fill="#E8B84A" opacity="0.35"/>
<circle cx="114.3" cy="92.0" r="4.5" fill="#E8B84A" opacity="0.12"/>
<circle cx="171.4" cy="92.0" r="4.5" fill="#E8B84A" opacity="0.12"/>
<circle cx="228.6" cy="92.0" r="4.5" fill="#E8B84A" opacity="0.12"/>
<circle cx="285.7" cy="92.0" r="4.5" fill="#E8B84A" opacity="0.12"/>
<circle cx="342.9" cy="92.0" r="8.1" fill="#E8B84A" opacity="0.35"/>
<circle cx="57.1" cy="128.0" r="4.5" fill="#E8B84A" opacity="0.12"/>
<circle cx="114.3" cy="128.0" r="4.5" fill="#E8B84A" opacity="0.12"/>
<circle cx="171.4" cy="128.0" r="4.5" fill="#E8B84A" opacity="0.12"/>
<circle cx="228.6" cy="128.0" r="4.5" fill="#E8B84A" opacity="0.12"/>
<circle cx="285.7" cy="128.0" r="8.1" fill="#E8B84A" opacity="0.35"/>
<circle cx="342.9" cy="128.0" r="4.5" fill="#E8B84A" opacity="0.12"/>
<circle cx="57.1" cy="164.0" r="4.5" fill="#E8B84A" opacity="0.12"/>
<circle cx="114.3" cy="164.0" r="4.5" fill="#E8B84A" opacity="0.12"/>
<circle cx="171.4" cy="164.0" r="4.5" fill="#E8B84A" opacity="0.12"/>
<circle cx="228.6" cy="164.0" r="8.1" fill="#E8B84A" opacity="0.35"/>
<circle cx="285.7" cy="164.0" r="4.5" fill="#E8B84A" opacity="0.12"/>
<circle cx="342.9" cy="164.0" r="4.5" fill="#E8B84A" opacity="0.12"/>
<circle cx="57.1" cy="200.0" r="4.5" fill="#E8B84A" opacity="0.12"/>
<circle cx="114.3" cy="200.0" r="4.5" fill="#E8B84A" opacity="0.12"/>
<circle cx="171.4" cy="200.0" r="8.1" fill="#E8B84A" opacity="0.35"/>
<circle cx="228.6" cy="200.0" r="4.5" fill="#E8B84A" opacity="0.12"/>
<circle cx="285.7" cy="200.0" r="4.5" fill="#E8B84A" opacity="0.12"/>
<circle cx="342.9" cy="200.0" r="4.5" fill="#E8B84A" opacity="0.12"/>
<circle cx="57.1" cy="236.0" r="4.5" fill="#E8B84A" opacity="0.12"/>
<circle cx="114.3" cy="236.0" r="8.1" fill="#E8B84A" opacity="0.35"/>
<circle cx="171.4" cy="236.0" r="4.5" fill="#E8B84A" opacity="0.12"/>
<circle cx="228.6" cy="236.0" r="4.5" fill="#E8B84A" opacity="0.12"/>
<circle cx="285.7" cy="236.0" r="4.5" fill="#E8B84A" opacity="0.12"/>
<circle cx="342.9" cy="236.0" r="4.5" fill="#E8B84A" opacity="0.12"/>
<circle cx="57.1" cy="272.0" r="8.1" fill="#E8B84A" opacity="0.35"/>
<circle cx="114.3" cy="272.0" r="4.5" fill="#E8B84A" opacity="0.12"/>
<circle cx="171.4" cy="272.0" r="4.5" fill="#E8B84A" opacity="0.12"/>
<circle cx="228.6" cy="272.0" r="4.5" fill="#E8B84A" opacity="0.12"/>
<circle cx="285.7" cy="272.0" r="4.5" fill="#E8B84A" opacity="0.12"/>
<circle cx="342.9" cy="272.0" r="8.1" fill="#E8B84A" opacity="0.35"/>
<circle cx="57.1" cy="308.0" r="4.5" fill="#E8B84A" opacity="0.12"/>
<circle cx="114.3" cy="308.0" r="4.5" fill="#E8B84A" opacity="0.12"/>
<circle cx="171.4" cy="308.0" r="4.5" fill="#E8B84A" opacity="0.12"/>
<circle cx="228.6" cy="308.0" r="4.5" fill="#E8B84A" opacity="0.12"/>
<circle cx="285.7" cy="308.0" r="8.1" fill="#E8B84A" opacity="0.35"/>
<circle cx="342.9" cy="308.0" r="4.5" fill="#E8B84A" opacity="0.12"/>
<circle cx="57.1" cy="344.0" r="4.5" fill="#E8B84A" opacity="0.12"/>
<circle cx="114.3" cy="344.0" r="4.5" fill="#E8B84A" opacity="0.12"/>
<circle cx="171.4" cy="344.0" r="4.5" fill="#E8B84A" opacity="0.12"/>
<circle cx="228.6" cy="344.0" r="8.1" fill="#E8B84A" opacity="0.35"/>
<circle cx="285.7" cy="344.0" r="4.5" fill="#E8B84A" opacity="0.12"/>
<circle cx="342.9" cy="344.0" r="4.5" fill="#E8B84A" opacity="0.12"/>
  </g>
  <rect x="0" y="466" width="400" height="134" fill="#1A3A2A" opacity="0.6"/>
<line x1="30" y1="471" x2="370" y2="471" stroke="#E8B84A" stroke-width="0.5" opacity="0.3"/>
<text x="30" y="484" font-family="Helvetica Neue, Helvetica, Arial, sans-serif" font-size="28" font-weight="700" fill="#E8B84A" letter-spacing="0.08em" opacity="0.9"><tspan  dy="0">STUBBORN</tspan><tspan x="30" dy="35">ATTACHMENTS</tspan></text>
<text x="30" y="562" font-family="Helvetica Neue, Helvetica, Arial, sans-serif" font-size="14" font-weight="400" fill="#E8B84A" letter-spacing="0.04em" opacity="0.55">Tyler Cowen</text>
  <rect x="0" y="0" width="6" height="600" fill="#2A5A4A" opacity="0.25"/><line x1="6" y1="0" x2="6" y2="600" stroke="#E8B84A" stroke-width="0.5" opacity="0.15"/>
  <clipPath id="cover-clip">
    <rect width="400" height="600"/>
  </clipPath>
</svg>