<svg xmlns="http://www.w3.org/2000/svg" width="400" height="600" viewBox="0 0 400 600">
  <rect width="400" height="600" fill="#E8DFD0"/>
  <g clip-path="url(#cover-clip)">
    <line x1="192" y1="252" x2="672" y2="252" stroke="#C75B3A" stroke-width="0.8" opacity="0.06"/>
<line x1="192" y1="252" x2="646" y2="408" stroke="#C75B3A" stroke-width="1.1" opacity="0.11"/>
<line x1="192" y1="252" x2="571" y2="547" stroke="#C75B3A" stroke-width="1.4" opacity="0.16"/>
<line x1="192" y1="252" x2="455" y2="654" stroke="#C75B3A" stroke-width="1.7" opacity="0.06"/>
<line x1="192" y1="252" x2="310" y2="717" stroke="#C75B3A" stroke-width="0.8" opacity="0.11"/>
<line x1="192" y1="252" x2="152" y2="730" stroke="#C75B3A" stroke-width="1.1" opacity="0.16"/>
<line x1="192" y1="252" x2="-1" y2="692" stroke="#C75B3A" stroke-width="1.4" opacity="0.06"/>
<line x1="192" y1="252" x2="-133" y2="605" stroke="#C75B3A" stroke-width="1.7" opacity="0.11"/>
<line x1="192" y1="252" x2="-230" y2="480" stroke="#C75B3A" stroke-width="0.8" opacity="0.16"/>
<line x1="192" y1="252" x2="-281" y2="331" stroke="#C75B3A" stroke-width="1.1" opacity="0.06"/>
<line x1="192" y1="252" x2="-281" y2="173" stroke="#C75B3A" stroke-width="1.4" opacity="0.11"/>
<line x1="192" y1="252" x2="-230" y2="24" stroke="#C75B3A" stroke-width="1.7" opacity="0.16"/>
<line x1="192" y1="252" x2="-133" y2="-101" stroke="#C75B3A" stroke-width="0.8" opacity="0.06"/>
<line x1="192" y1="252" x2="-1" y2="-188" stroke="#C75B3A" stroke-width="1.1" opacity="0.11"/>
<line x1="192" y1="252" x2="152" y2="-226" stroke="#C75B3A" stroke-width="1.4" opacity="0.16"/>
<line x1="192" y1="252" x2="310" y2="-213" stroke="#C75B3A" stroke-width="1.7" opacity="0.06"/>
<line x1="192" y1="252" x2="455" y2="-150" stroke="#C75B3A" stroke-width="0.8" opacity="0.11"/>
<line x1="192" y1="252" x2="571" y2="-43" stroke="#C75B3A" stroke-width="1.1" opacity="0.16"/>
<line x1="192" y1="252" x2="646" y2="96" stroke="#C75B3A" stroke-width="1.4" opacity="0.06"/>
  </g>
  <rect x="0" y="466" width="400" height="134" fill="#E8DFD0" opacity="0.6"/>
<line x1="30" y1="471" x2="370" y2="471" stroke="#C75B3A" stroke-width="0.5" opacity="0.3"/>
<text x="30" y="484" font-family="Helvetica Neue, Helvetica, Arial, sans-serif" font-size="28" font-weight="700" fill="#C75B3A" letter-spacing="0.08em" opacity="0.9"><tspan  dy="0">THE THREE-BODY</tspan><tspan x="30" dy="35">PROBLEM</tspan></text>
<text x="30" y="562" font-family="Helvetica Neue, Helvetica, Arial, sans-serif" font-size="14" font-weight="400" fill="#C75B3A" letter-spacing="0.04em" opacity="0.55">Cixin Liu</text>
  <rect x="0" y="0" width="6" height="600" fill="#D4C8B8" opacity="0.25"/><line x1="6" y1="0" x2="6" y2="600" stroke="#C75B3A" stroke-width="0.5" opacity="0.15"/>
  <clipPath id="cover-clip">
    <rect width="400" height="600"/>
  </clipPath>
</svg>