<svg xmlns="http://www.w3.org/2000/svg" width="400" height="600" viewBox="0 0 400 600">
  <rect width="400" height="600" fill="#FAF8F5"/>
  <g clip-path="url(#cover-clip)">
    <line x1="200" y1="136" x2="680" y2="136" stroke="#1A1A1A" stroke-width="0.8" opacity="0.06"/>
<line x1="200" y1="136" x2="661" y2="271" stroke="#1A1A1A" stroke-width="1.1" opacity="0.11"/>
<line x1="200" y1="136" x2="604" y2="396" stroke="#1A1A1A" stroke-width="1.4" opacity="0.16"/>
<line x1="200" y1="136" x2="514" y2="499" stroke="#1A1A1A" stroke-width="1.7" opacity="0.06"/>
<line x1="200" y1="136" x2="399" y2="573" stroke="#1A1A1A" stroke-width="0.8" opacity="0.11"/>
<line x1="200" y1="136" x2="268" y2="611" stroke="#1A1A1A" stroke-width="1.1" opacity="0.16"/>
<line x1="200" y1="136" x2="132" y2="611" stroke="#1A1A1A" stroke-width="1.4" opacity="0.06"/>
<line x1="200" y1="136" x2="1" y2="573" stroke="#1A1A1A" stroke-width="1.7" opacity="0.11"/>
<line x1="200" y1="136" x2="-114" y2="499" stroke="#1A1A1A" stroke-width="0.8" opacity="0.16"/>
<line x1="200" y1="136" x2="-204" y2="396" stroke="#1A1A1A" stroke-width="1.1" opacity="0.06"/>
<line x1="200" y1="136" x2="-261" y2="271" stroke="#1A1A1A" stroke-width="1.4" opacity="0.11"/>
<line x1="200" y1="136" x2="-280" y2="136" stroke="#1A1A1A" stroke-width="1.7" opacity="0.16"/>
<line x1="200" y1="136" x2="-261" y2="1" stroke="#1A1A1A" stroke-width="0.8" opacity="0.06"/>
<line x1="200" y1="136" x2="-204" y2="-124" stroke="#1A1A1A" stroke-width="1.1" opacity="0.11"/>
<line x1="200" y1="136" x2="-114" y2="-227" stroke="#1A1A1A" stroke-width="1.4" opacity="0.16"/>
<line x1="200" y1="136" x2="1" y2="-301" stroke="#1A1A1A" stroke-width="1.7" opacity="0.06"/>
<line x1="200" y1="136" x2="132" y2="-339" stroke="#1A1A1A" stroke-width="0.8" opacity="0.11"/>
<line x1="200" y1="136" x2="268" y2="-339" stroke="#1A1A1A" stroke-width="1.1" opacity="0.16"/>
<line x1="200" y1="136" x2="399" y2="-301" stroke="#1A1A1A" stroke-width="1.4" opacity="0.06"/>
<line x1="200" y1="136" x2="514" y2="-227" stroke="#1A1A1A" stroke-width="1.7" opacity="0.11"/>
<line x1="200" y1="136" x2="604" y2="-124" stroke="#1A1A1A" stroke-width="0.8" opacity="0.16"/>
<line x1="200" y1="136" x2="661" y2="1" stroke="#1A1A1A" stroke-width="1.1" opacity="0.06"/>
  </g>
  <rect x="0" y="443" width="400" height="154" fill="#FAF8F5" opacity="0.6"/>
<line x1="30" y1="448" x2="370" y2="448" stroke="#1A1A1A" stroke-width="0.5" opacity="0.3"/>
<text x="30" y="460" font-family="Helvetica Neue, Helvetica, Arial, sans-serif" font-size="24" font-weight="700" fill="#1A1A1A" letter-spacing="0.08em" opacity="0.9"><tspan  dy="0">THE 7 HABITS OF</tspan><tspan x="30" dy="30">HIGHLY EFFECTIVE</tspan><tspan x="30" dy="30">PEOPLE</tspan></text>
<text x="30" y="558" font-family="Helvetica Neue, Helvetica, Arial, sans-serif" font-size="14" font-weight="400" fill="#1A1A1A" letter-spacing="0.04em" opacity="0.55">Stephen Covey</text>
  <rect x="0" y="0" width="6" height="600" fill="#E0DAD0" opacity="0.25"/><line x1="6" y1="0" x2="6" y2="600" stroke="#1A1A1A" stroke-width="0.5" opacity="0.15"/>
  <clipPath id="cover-clip">
    <rect width="400" height="600"/>
  </clipPath>
</svg>