<svg xmlns="http://www.w3.org/2000/svg" width="400" height="600" viewBox="0 0 400 600">
  <rect width="400" height="600" fill="#4A3A2A"/>
  <g clip-path="url(#cover-clip)">
    <circle cx="62" cy="116" r="20" fill="none" stroke="#FAF8F5" stroke-width="1" opacity="0.12"/>
<circle cx="135" cy="335" r="18" fill="#FAF8F5" opacity="0.05"/>
<circle cx="208" cy="194" r="16" fill="none" stroke="#FAF8F5" stroke-width="1" opacity="0.23"/>
<circle cx="281" cy="53" r="14" fill="none" stroke="#FAF8F5" stroke-width="1" opacity="0.21"/>
<circle cx="354" cy="272" r="12" fill="#FAF8F5" opacity="0.14"/>
<circle cx="47" cy="131" r="10" fill="none" stroke="#FAF8F5" stroke-width="1" opacity="0.17"/>
<circle cx="120" cy="350" r="8" fill="none" stroke="#FAF8F5" stroke-width="1" opacity="0.15"/>
<circle cx="193" cy="209" r="6" fill="#FAF8F5" opacity="0.08"/>
<circle cx="266" cy="68" r="4" fill="none" stroke="#FAF8F5" stroke-width="1" opacity="0.11"/>
<circle cx="339" cy="287" r="27" fill="none" stroke="#FAF8F5" stroke-width="1" opacity="0.24"/>
<circle cx="32" cy="146" r="25" fill="#FAF8F5" opacity="0.17"/>
<circle cx="105" cy="365" r="23" fill="none" stroke="#FAF8F5" stroke-width="1" opacity="0.20"/>
<circle cx="178" cy="224" r="21" fill="none" stroke="#FAF8F5" stroke-width="1" opacity="0.18"/>
<circle cx="251" cy="83" r="19" fill="#FAF8F5" opacity="0.11"/>
<circle cx="324" cy="302" r="17" fill="none" stroke="#FAF8F5" stroke-width="1" opacity="0.14"/>
<circle cx="17" cy="161" r="15" fill="none" stroke="#FAF8F5" stroke-width="1" opacity="0.12"/>
<circle cx="90" cy="20" r="13" fill="#FAF8F5" opacity="0.05"/>
<circle cx="43" cy="119" r="11" fill="#FAF8F5" opacity="0.08"/>
  </g>
  <rect x="0" y="466" width="400" height="134" fill="#4A3A2A" opacity="0.6"/>
<line x1="30" y1="471" x2="370" y2="471" stroke="#FAF8F5" stroke-width="0.5" opacity="0.3"/>
<text x="30" y="484" font-family="Helvetica Neue, Helvetica, Arial, sans-serif" font-size="28" font-weight="700" fill="#FAF8F5" letter-spacing="0.08em" opacity="0.9"><tspan  dy="0">THE DICTATOR&apos;S</tspan><tspan x="30" dy="35">HANDBOOK</tspan></text>
<text x="30" y="562" font-family="Helvetica Neue, Helvetica, Arial, sans-serif" font-size="14" font-weight="400" fill="#FAF8F5" letter-spacing="0.04em" opacity="0.55">Bueno de Mesquita &amp; Smith</text>
  <rect x="0" y="0" width="6" height="600" fill="#7A6A5A" opacity="0.25"/><line x1="6" y1="0" x2="6" y2="600" stroke="#FAF8F5" stroke-width="0.5" opacity="0.15"/>
  <clipPath id="cover-clip">
    <rect width="400" height="600"/>
  </clipPath>
</svg>