<svg xmlns="http://www.w3.org/2000/svg" width="400" height="600" viewBox="0 0 400 600">
  <rect width="400" height="600" fill="#2A2A3A"/>
  <g clip-path="url(#cover-clip)">
    <line x1="-300" y1="0" x2="-646" y2="600" stroke="#E8A870" stroke-width="1.5" opacity="0.18"/>
<line x1="-227" y1="0" x2="-573" y2="600" stroke="#E8A870" stroke-width="2.3" opacity="0.17"/>
<line x1="-153" y1="0" x2="-500" y2="600" stroke="#E8A870" stroke-width="3.1" opacity="0.15"/>
<line x1="-80" y1="0" x2="-426" y2="600" stroke="#E8A870" stroke-width="1.5" opacity="0.14"/>
<line x1="-7" y1="0" x2="-353" y2="600" stroke="#E8A870" stroke-width="2.3" opacity="0.13"/>
<line x1="67" y1="0" x2="-280" y2="600" stroke="#E8A870" stroke-width="3.1" opacity="0.11"/>
<line x1="140" y1="0" x2="-206" y2="600" stroke="#E8A870" stroke-width="1.5" opacity="0.10"/>
<line x1="213" y1="0" x2="-133" y2="600" stroke="#E8A870" stroke-width="2.3" opacity="0.09"/>
<line x1="287" y1="0" x2="-60" y2="600" stroke="#E8A870" stroke-width="3.1" opacity="0.09"/>
<line x1="360" y1="0" x2="14" y2="600" stroke="#E8A870" stroke-width="1.5" opacity="0.10"/>
<line x1="433" y1="0" x2="87" y2="600" stroke="#E8A870" stroke-width="2.3" opacity="0.11"/>
<line x1="507" y1="0" x2="160" y2="600" stroke="#E8A870" stroke-width="3.1" opacity="0.13"/>
<line x1="580" y1="0" x2="234" y2="600" stroke="#E8A870" stroke-width="1.5" opacity="0.14"/>
<line x1="653" y1="0" x2="307" y2="600" stroke="#E8A870" stroke-width="2.3" opacity="0.15"/>
<line x1="727" y1="0" x2="380" y2="600" stroke="#E8A870" stroke-width="3.1" opacity="0.17"/>
<line x1="800" y1="0" x2="454" y2="600" stroke="#E8A870" stroke-width="1.5" opacity="0.18"/>
  </g>
  <rect x="0" y="466" width="400" height="134" fill="#2A2A3A" opacity="0.6"/>
<line x1="30" y1="471" x2="370" y2="471" stroke="#E8A870" stroke-width="0.5" opacity="0.3"/>
<text x="30" y="484" font-family="Helvetica Neue, Helvetica, Arial, sans-serif" font-size="28" font-weight="700" fill="#E8A870" letter-spacing="0.08em" opacity="0.9"><tspan  dy="0">THE EDGE OF</tspan><tspan x="30" dy="35">SENTIENCE</tspan></text>
<text x="30" y="562" font-family="Helvetica Neue, Helvetica, Arial, sans-serif" font-size="14" font-weight="400" fill="#E8A870" letter-spacing="0.04em" opacity="0.55">Jonathan Birch</text>
  <rect x="0" y="0" width="6" height="600" fill="#4A4A6A" opacity="0.25"/><line x1="6" y1="0" x2="6" y2="600" stroke="#E8A870" stroke-width="0.5" opacity="0.15"/>
  <clipPath id="cover-clip">
    <rect width="400" height="600"/>
  </clipPath>
</svg>