<svg xmlns="http://www.w3.org/2000/svg" width="400" height="600" viewBox="0 0 400 600">
  <rect width="400" height="600" fill="#4A3A2A"/>
  <g clip-path="url(#cover-clip)">
    <line x1="-330" y1="30" x2="0" y2="360" stroke="#FAF8F5" stroke-width="0.6" opacity="0.08"/>
<line x1="-318" y1="30" x2="12" y2="360" stroke="#FAF8F5" stroke-width="0.6" opacity="0.08"/>
<line x1="-306" y1="30" x2="24" y2="360" stroke="#FAF8F5" stroke-width="0.6" opacity="0.08"/>
<line x1="-294" y1="30" x2="36" y2="360" stroke="#FAF8F5" stroke-width="0.6" opacity="0.08"/>
<line x1="-282" y1="30" x2="48" y2="360" stroke="#FAF8F5" stroke-width="0.6" opacity="0.08"/>
<line x1="-270" y1="30" x2="60" y2="360" stroke="#FAF8F5" stroke-width="0.6" opacity="0.08"/>
<line x1="-258" y1="30" x2="72" y2="360" stroke="#FAF8F5" stroke-width="0.6" opacity="0.08"/>
<line x1="-246" y1="30" x2="84" y2="360" stroke="#FAF8F5" stroke-width="0.6" opacity="0.08"/>
<line x1="-234" y1="30" x2="96" y2="360" stroke="#FAF8F5" stroke-width="0.6" opacity="0.08"/>
<line x1="-222" y1="30" x2="108" y2="360" stroke="#FAF8F5" stroke-width="0.6" opacity="0.08"/>
<line x1="-210" y1="30" x2="120" y2="360" stroke="#FAF8F5" stroke-width="0.6" opacity="0.08"/>
<line x1="-198" y1="30" x2="132" y2="360" stroke="#FAF8F5" stroke-width="0.6" opacity="0.08"/>
<line x1="-186" y1="30" x2="144" y2="360" stroke="#FAF8F5" stroke-width="0.6" opacity="0.08"/>
<line x1="-174" y1="30" x2="156" y2="360" stroke="#FAF8F5" stroke-width="0.6" opacity="0.08"/>
<line x1="-162" y1="30" x2="168" y2="360" stroke="#FAF8F5" stroke-width="0.6" opacity="0.08"/>
<line x1="-150" y1="30" x2="180" y2="360" stroke="#FAF8F5" stroke-width="0.6" opacity="0.08"/>
<line x1="-138" y1="30" x2="192" y2="360" stroke="#FAF8F5" stroke-width="0.6" opacity="0.08"/>
<line x1="-126" y1="30" x2="204" y2="360" stroke="#FAF8F5" stroke-width="0.6" opacity="0.08"/>
<line x1="-114" y1="30" x2="216" y2="360" stroke="#FAF8F5" stroke-width="0.6" opacity="0.08"/>
<line x1="-102" y1="30" x2="228" y2="360" stroke="#FAF8F5" stroke-width="0.6" opacity="0.08"/>
<line x1="-90" y1="30" x2="240" y2="360" stroke="#FAF8F5" stroke-width="0.6" opacity="0.08"/>
<line x1="-78" y1="30" x2="252" y2="360" stroke="#FAF8F5" stroke-width="0.6" opacity="0.08"/>
<line x1="-66" y1="30" x2="264" y2="360" stroke="#FAF8F5" stroke-width="0.6" opacity="0.08"/>
<line x1="-54" y1="30" x2="276" y2="360" stroke="#FAF8F5" stroke-width="0.6" opacity="0.08"/>
<line x1="-42" y1="30" x2="288" y2="360" stroke="#FAF8F5" stroke-width="0.6" opacity="0.08"/>
<line x1="-30" y1="30" x2="300" y2="360" stroke="#FAF8F5" stroke-width="0.6" opacity="0.08"/>
<line x1="-18" y1="30" x2="312" y2="360" stroke="#FAF8F5" stroke-width="0.6" opacity="0.08"/>
<line x1="-6" y1="30" x2="324" y2="360" stroke="#FAF8F5" stroke-width="0.6" opacity="0.08"/>
<line x1="6" y1="30" x2="336" y2="360" stroke="#FAF8F5" stroke-width="0.6" opacity="0.08"/>
<line x1="18" y1="30" x2="348" y2="360" stroke="#FAF8F5" stroke-width="0.6" opacity="0.08"/>
<line x1="30" y1="30" x2="360" y2="360" stroke="#FAF8F5" stroke-width="0.6" opacity="0.08"/>
<line x1="42" y1="30" x2="372" y2="360" stroke="#FAF8F5" stroke-width="0.6" opacity="0.08"/>
<line x1="54" y1="30" x2="384" y2="360" stroke="#FAF8F5" stroke-width="0.6" opacity="0.08"/>
<line x1="66" y1="30" x2="396" y2="360" stroke="#FAF8F5" stroke-width="0.6" opacity="0.08"/>
<line x1="78" y1="30" x2="408" y2="360" stroke="#FAF8F5" stroke-width="0.6" opacity="0.08"/>
<line x1="90" y1="30" x2="420" y2="360" stroke="#FAF8F5" stroke-width="0.6" opacity="0.08"/>
<line x1="102" y1="30" x2="432" y2="360" stroke="#FAF8F5" stroke-width="0.6" opacity="0.08"/>
<line x1="114" y1="30" x2="444" y2="360" stroke="#FAF8F5" stroke-width="0.6" opacity="0.08"/>
<line x1="126" y1="30" x2="456" y2="360" stroke="#FAF8F5" stroke-width="0.6" opacity="0.08"/>
<line x1="138" y1="30" x2="468" y2="360" stroke="#FAF8F5" stroke-width="0.6" opacity="0.08"/>
<line x1="150" y1="30" x2="480" y2="360" stroke="#FAF8F5" stroke-width="0.6" opacity="0.08"/>
<line x1="162" y1="30" x2="492" y2="360" stroke="#FAF8F5" stroke-width="0.6" opacity="0.08"/>
<line x1="174" y1="30" x2="504" y2="360" stroke="#FAF8F5" stroke-width="0.6" opacity="0.08"/>
<line x1="186" y1="30" x2="516" y2="360" stroke="#FAF8F5" stroke-width="0.6" opacity="0.08"/>
<line x1="198" y1="30" x2="528" y2="360" stroke="#FAF8F5" stroke-width="0.6" opacity="0.08"/>
<line x1="210" y1="30" x2="540" y2="360" stroke="#FAF8F5" stroke-width="0.6" opacity="0.08"/>
<line x1="222" y1="30" x2="552" y2="360" stroke="#FAF8F5" stroke-width="0.6" opacity="0.08"/>
<line x1="234" y1="30" x2="564" y2="360" stroke="#FAF8F5" stroke-width="0.6" opacity="0.08"/>
<line x1="246" y1="30" x2="576" y2="360" stroke="#FAF8F5" stroke-width="0.6" opacity="0.08"/>
<line x1="258" y1="30" x2="588" y2="360" stroke="#FAF8F5" stroke-width="0.6" opacity="0.08"/>
<line x1="270" y1="30" x2="600" y2="360" stroke="#FAF8F5" stroke-width="0.6" opacity="0.08"/>
<line x1="282" y1="30" x2="612" y2="360" stroke="#FAF8F5" stroke-width="0.6" opacity="0.08"/>
<line x1="294" y1="30" x2="624" y2="360" stroke="#FAF8F5" stroke-width="0.6" opacity="0.08"/>
<line x1="306" y1="30" x2="636" y2="360" stroke="#FAF8F5" stroke-width="0.6" opacity="0.08"/>
<line x1="318" y1="30" x2="648" y2="360" stroke="#FAF8F5" stroke-width="0.6" opacity="0.08"/>
<line x1="330" y1="30" x2="660" y2="360" stroke="#FAF8F5" stroke-width="0.6" opacity="0.08"/>
<line x1="342" y1="30" x2="672" y2="360" stroke="#FAF8F5" stroke-width="0.6" opacity="0.08"/>
<line x1="354" y1="30" x2="684" y2="360" stroke="#FAF8F5" stroke-width="0.6" opacity="0.08"/>
<line x1="366" y1="30" x2="696" y2="360" stroke="#FAF8F5" stroke-width="0.6" opacity="0.08"/>
<line x1="378" y1="30" x2="708" y2="360" stroke="#FAF8F5" stroke-width="0.6" opacity="0.08"/>
<line x1="390" y1="30" x2="720" y2="360" stroke="#FAF8F5" stroke-width="0.6" opacity="0.08"/>
<line x1="402" y1="30" x2="732" y2="360" stroke="#FAF8F5" stroke-width="0.6" opacity="0.08"/>
<line x1="414" y1="30" x2="744" y2="360" stroke="#FAF8F5" stroke-width="0.6" opacity="0.08"/>
<line x1="426" y1="30" x2="756" y2="360" stroke="#FAF8F5" stroke-width="0.6" opacity="0.08"/>
<line x1="438" y1="30" x2="768" y2="360" stroke="#FAF8F5" stroke-width="0.6" opacity="0.08"/>
<line x1="450" y1="30" x2="780" y2="360" stroke="#FAF8F5" stroke-width="0.6" opacity="0.08"/>
<line x1="462" y1="30" x2="792" y2="360" stroke="#FAF8F5" stroke-width="0.6" opacity="0.08"/>
<line x1="474" y1="30" x2="804" y2="360" stroke="#FAF8F5" stroke-width="0.6" opacity="0.08"/>
<line x1="486" y1="30" x2="816" y2="360" stroke="#FAF8F5" stroke-width="0.6" opacity="0.08"/>
<line x1="498" y1="30" x2="828" y2="360" stroke="#FAF8F5" stroke-width="0.6" opacity="0.08"/>
<line x1="510" y1="30" x2="840" y2="360" stroke="#FAF8F5" stroke-width="0.6" opacity="0.08"/>
<line x1="522" y1="30" x2="852" y2="360" stroke="#FAF8F5" stroke-width="0.6" opacity="0.08"/>
<line x1="534" y1="30" x2="864" y2="360" stroke="#FAF8F5" stroke-width="0.6" opacity="0.08"/>
<line x1="546" y1="30" x2="876" y2="360" stroke="#FAF8F5" stroke-width="0.6" opacity="0.08"/>
<line x1="558" y1="30" x2="888" y2="360" stroke="#FAF8F5" stroke-width="0.6" opacity="0.08"/>
<line x1="570" y1="30" x2="900" y2="360" stroke="#FAF8F5" stroke-width="0.6" opacity="0.08"/>
<line x1="582" y1="30" x2="912" y2="360" stroke="#FAF8F5" stroke-width="0.6" opacity="0.08"/>
<line x1="594" y1="30" x2="924" y2="360" stroke="#FAF8F5" stroke-width="0.6" opacity="0.08"/>
<line x1="606" y1="30" x2="936" y2="360" stroke="#FAF8F5" stroke-width="0.6" opacity="0.08"/>
<line x1="618" y1="30" x2="948" y2="360" stroke="#FAF8F5" stroke-width="0.6" opacity="0.08"/>
<line x1="630" y1="30" x2="960" y2="360" stroke="#FAF8F5" stroke-width="0.6" opacity="0.08"/>
<line x1="642" y1="30" x2="972" y2="360" stroke="#FAF8F5" stroke-width="0.6" opacity="0.08"/>
<line x1="654" y1="30" x2="984" y2="360" stroke="#FAF8F5" stroke-width="0.6" opacity="0.08"/>
<line x1="666" y1="30" x2="996" y2="360" stroke="#FAF8F5" stroke-width="0.6" opacity="0.08"/>
<line x1="678" y1="30" x2="1008" y2="360" stroke="#FAF8F5" stroke-width="0.6" opacity="0.08"/>
<line x1="690" y1="30" x2="1020" y2="360" stroke="#FAF8F5" stroke-width="0.6" opacity="0.08"/>
<line x1="702" y1="30" x2="1032" y2="360" stroke="#FAF8F5" stroke-width="0.6" opacity="0.08"/>
<line x1="714" y1="30" x2="1044" y2="360" stroke="#FAF8F5" stroke-width="0.6" opacity="0.08"/>
<line x1="726" y1="30" x2="1056" y2="360" stroke="#FAF8F5" stroke-width="0.6" opacity="0.08"/>
<line x1="0" y1="30" x2="-330" y2="360" stroke="#FAF8F5" stroke-width="0.6" opacity="0.08"/>
<line x1="12" y1="30" x2="-318" y2="360" stroke="#FAF8F5" stroke-width="0.6" opacity="0.08"/>
<line x1="24" y1="30" x2="-306" y2="360" stroke="#FAF8F5" stroke-width="0.6" opacity="0.08"/>
<line x1="36" y1="30" x2="-294" y2="360" stroke="#FAF8F5" stroke-width="0.6" opacity="0.08"/>
<line x1="48" y1="30" x2="-282" y2="360" stroke="#FAF8F5" stroke-width="0.6" opacity="0.08"/>
<line x1="60" y1="30" x2="-270" y2="360" stroke="#FAF8F5" stroke-width="0.6" opacity="0.08"/>
<line x1="72" y1="30" x2="-258" y2="360" stroke="#FAF8F5" stroke-width="0.6" opacity="0.08"/>
<line x1="84" y1="30" x2="-246" y2="360" stroke="#FAF8F5" stroke-width="0.6" opacity="0.08"/>
<line x1="96" y1="30" x2="-234" y2="360" stroke="#FAF8F5" stroke-width="0.6" opacity="0.08"/>
<line x1="108" y1="30" x2="-222" y2="360" stroke="#FAF8F5" stroke-width="0.6" opacity="0.08"/>
<line x1="120" y1="30" x2="-210" y2="360" stroke="#FAF8F5" stroke-width="0.6" opacity="0.08"/>
<line x1="132" y1="30" x2="-198" y2="360" stroke="#FAF8F5" stroke-width="0.6" opacity="0.08"/>
<line x1="144" y1="30" x2="-186" y2="360" stroke="#FAF8F5" stroke-width="0.6" opacity="0.08"/>
<line x1="156" y1="30" x2="-174" y2="360" stroke="#FAF8F5" stroke-width="0.6" opacity="0.08"/>
<line x1="168" y1="30" x2="-162" y2="360" stroke="#FAF8F5" stroke-width="0.6" opacity="0.08"/>
<line x1="180" y1="30" x2="-150" y2="360" stroke="#FAF8F5" stroke-width="0.6" opacity="0.08"/>
<line x1="192" y1="30" x2="-138" y2="360" stroke="#FAF8F5" stroke-width="0.6" opacity="0.08"/>
<line x1="204" y1="30" x2="-126" y2="360" stroke="#FAF8F5" stroke-width="0.6" opacity="0.08"/>
<line x1="216" y1="30" x2="-114" y2="360" stroke="#FAF8F5" stroke-width="0.6" opacity="0.08"/>
<line x1="228" y1="30" x2="-102" y2="360" stroke="#FAF8F5" stroke-width="0.6" opacity="0.08"/>
<line x1="240" y1="30" x2="-90" y2="360" stroke="#FAF8F5" stroke-width="0.6" opacity="0.08"/>
<line x1="252" y1="30" x2="-78" y2="360" stroke="#FAF8F5" stroke-width="0.6" opacity="0.08"/>
<line x1="264" y1="30" x2="-66" y2="360" stroke="#FAF8F5" stroke-width="0.6" opacity="0.08"/>
<line x1="276" y1="30" x2="-54" y2="360" stroke="#FAF8F5" stroke-width="0.6" opacity="0.08"/>
<line x1="288" y1="30" x2="-42" y2="360" stroke="#FAF8F5" stroke-width="0.6" opacity="0.08"/>
<line x1="300" y1="30" x2="-30" y2="360" stroke="#FAF8F5" stroke-width="0.6" opacity="0.08"/>
<line x1="312" y1="30" x2="-18" y2="360" stroke="#FAF8F5" stroke-width="0.6" opacity="0.08"/>
<line x1="324" y1="30" x2="-6" y2="360" stroke="#FAF8F5" stroke-width="0.6" opacity="0.08"/>
<line x1="336" y1="30" x2="6" y2="360" stroke="#FAF8F5" stroke-width="0.6" opacity="0.08"/>
<line x1="348" y1="30" x2="18" y2="360" stroke="#FAF8F5" stroke-width="0.6" opacity="0.08"/>
<line x1="360" y1="30" x2="30" y2="360" stroke="#FAF8F5" stroke-width="0.6" opacity="0.08"/>
<line x1="372" y1="30" x2="42" y2="360" stroke="#FAF8F5" stroke-width="0.6" opacity="0.08"/>
<line x1="384" y1="30" x2="54" y2="360" stroke="#FAF8F5" stroke-width="0.6" opacity="0.08"/>
<line x1="396" y1="30" x2="66" y2="360" stroke="#FAF8F5" stroke-width="0.6" opacity="0.08"/>
<line x1="408" y1="30" x2="78" y2="360" stroke="#FAF8F5" stroke-width="0.6" opacity="0.08"/>
<line x1="420" y1="30" x2="90" y2="360" stroke="#FAF8F5" stroke-width="0.6" opacity="0.08"/>
<line x1="432" y1="30" x2="102" y2="360" stroke="#FAF8F5" stroke-width="0.6" opacity="0.08"/>
<line x1="444" y1="30" x2="114" y2="360" stroke="#FAF8F5" stroke-width="0.6" opacity="0.08"/>
<line x1="456" y1="30" x2="126" y2="360" stroke="#FAF8F5" stroke-width="0.6" opacity="0.08"/>
<line x1="468" y1="30" x2="138" y2="360" stroke="#FAF8F5" stroke-width="0.6" opacity="0.08"/>
<line x1="480" y1="30" x2="150" y2="360" stroke="#FAF8F5" stroke-width="0.6" opacity="0.08"/>
<line x1="492" y1="30" x2="162" y2="360" stroke="#FAF8F5" stroke-width="0.6" opacity="0.08"/>
<line x1="504" y1="30" x2="174" y2="360" stroke="#FAF8F5" stroke-width="0.6" opacity="0.08"/>
<line x1="516" y1="30" x2="186" y2="360" stroke="#FAF8F5" stroke-width="0.6" opacity="0.08"/>
<line x1="528" y1="30" x2="198" y2="360" stroke="#FAF8F5" stroke-width="0.6" opacity="0.08"/>
<line x1="540" y1="30" x2="210" y2="360" stroke="#FAF8F5" stroke-width="0.6" opacity="0.08"/>
<line x1="552" y1="30" x2="222" y2="360" stroke="#FAF8F5" stroke-width="0.6" opacity="0.08"/>
<line x1="564" y1="30" x2="234" y2="360" stroke="#FAF8F5" stroke-width="0.6" opacity="0.08"/>
<line x1="576" y1="30" x2="246" y2="360" stroke="#FAF8F5" stroke-width="0.6" opacity="0.08"/>
<line x1="588" y1="30" x2="258" y2="360" stroke="#FAF8F5" stroke-width="0.6" opacity="0.08"/>
<line x1="600" y1="30" x2="270" y2="360" stroke="#FAF8F5" stroke-width="0.6" opacity="0.08"/>
<line x1="612" y1="30" x2="282" y2="360" stroke="#FAF8F5" stroke-width="0.6" opacity="0.08"/>
<line x1="624" y1="30" x2="294" y2="360" stroke="#FAF8F5" stroke-width="0.6" opacity="0.08"/>
<line x1="636" y1="30" x2="306" y2="360" stroke="#FAF8F5" stroke-width="0.6" opacity="0.08"/>
<line x1="648" y1="30" x2="318" y2="360" stroke="#FAF8F5" stroke-width="0.6" opacity="0.08"/>
<line x1="660" y1="30" x2="330" y2="360" stroke="#FAF8F5" stroke-width="0.6" opacity="0.08"/>
<line x1="672" y1="30" x2="342" y2="360" stroke="#FAF8F5" stroke-width="0.6" opacity="0.08"/>
<line x1="684" y1="30" x2="354" y2="360" stroke="#FAF8F5" stroke-width="0.6" opacity="0.08"/>
<line x1="696" y1="30" x2="366" y2="360" stroke="#FAF8F5" stroke-width="0.6" opacity="0.08"/>
<line x1="708" y1="30" x2="378" y2="360" stroke="#FAF8F5" stroke-width="0.6" opacity="0.08"/>
<line x1="720" y1="30" x2="390" y2="360" stroke="#FAF8F5" stroke-width="0.6" opacity="0.08"/>
<line x1="732" y1="30" x2="402" y2="360" stroke="#FAF8F5" stroke-width="0.6" opacity="0.08"/>
<line x1="744" y1="30" x2="414" y2="360" stroke="#FAF8F5" stroke-width="0.6" opacity="0.08"/>
<line x1="756" y1="30" x2="426" y2="360" stroke="#FAF8F5" stroke-width="0.6" opacity="0.08"/>
<line x1="768" y1="30" x2="438" y2="360" stroke="#FAF8F5" stroke-width="0.6" opacity="0.08"/>
<line x1="780" y1="30" x2="450" y2="360" stroke="#FAF8F5" stroke-width="0.6" opacity="0.08"/>
<line x1="792" y1="30" x2="462" y2="360" stroke="#FAF8F5" stroke-width="0.6" opacity="0.08"/>
<line x1="804" y1="30" x2="474" y2="360" stroke="#FAF8F5" stroke-width="0.6" opacity="0.08"/>
<line x1="816" y1="30" x2="486" y2="360" stroke="#FAF8F5" stroke-width="0.6" opacity="0.08"/>
<line x1="828" y1="30" x2="498" y2="360" stroke="#FAF8F5" stroke-width="0.6" opacity="0.08"/>
<line x1="840" y1="30" x2="510" y2="360" stroke="#FAF8F5" stroke-width="0.6" opacity="0.08"/>
<line x1="852" y1="30" x2="522" y2="360" stroke="#FAF8F5" stroke-width="0.6" opacity="0.08"/>
<line x1="864" y1="30" x2="534" y2="360" stroke="#FAF8F5" stroke-width="0.6" opacity="0.08"/>
<line x1="876" y1="30" x2="546" y2="360" stroke="#FAF8F5" stroke-width="0.6" opacity="0.08"/>
<line x1="888" y1="30" x2="558" y2="360" stroke="#FAF8F5" stroke-width="0.6" opacity="0.08"/>
<line x1="900" y1="30" x2="570" y2="360" stroke="#FAF8F5" stroke-width="0.6" opacity="0.08"/>
<line x1="912" y1="30" x2="582" y2="360" stroke="#FAF8F5" stroke-width="0.6" opacity="0.08"/>
<line x1="924" y1="30" x2="594" y2="360" stroke="#FAF8F5" stroke-width="0.6" opacity="0.08"/>
<line x1="936" y1="30" x2="606" y2="360" stroke="#FAF8F5" stroke-width="0.6" opacity="0.08"/>
<line x1="948" y1="30" x2="618" y2="360" stroke="#FAF8F5" stroke-width="0.6" opacity="0.08"/>
<line x1="960" y1="30" x2="630" y2="360" stroke="#FAF8F5" stroke-width="0.6" opacity="0.08"/>
<line x1="972" y1="30" x2="642" y2="360" stroke="#FAF8F5" stroke-width="0.6" opacity="0.08"/>
<line x1="984" y1="30" x2="654" y2="360" stroke="#FAF8F5" stroke-width="0.6" opacity="0.08"/>
<line x1="996" y1="30" x2="666" y2="360" stroke="#FAF8F5" stroke-width="0.6" opacity="0.08"/>
<line x1="1008" y1="30" x2="678" y2="360" stroke="#FAF8F5" stroke-width="0.6" opacity="0.08"/>
<line x1="1020" y1="30" x2="690" y2="360" stroke="#FAF8F5" stroke-width="0.6" opacity="0.08"/>
<line x1="1032" y1="30" x2="702" y2="360" stroke="#FAF8F5" stroke-width="0.6" opacity="0.08"/>
<line x1="1044" y1="30" x2="714" y2="360" stroke="#FAF8F5" stroke-width="0.6" opacity="0.08"/>
<line x1="1056" y1="30" x2="726" y2="360" stroke="#FAF8F5" stroke-width="0.6" opacity="0.08"/>
  </g>
  <rect x="0" y="466" width="400" height="134" fill="#4A3A2A" opacity="0.6"/>
<line x1="30" y1="471" x2="370" y2="471" stroke="#FAF8F5" stroke-width="0.5" opacity="0.3"/>
<text x="30" y="484" font-family="Helvetica Neue, Helvetica, Arial, sans-serif" font-size="28" font-weight="700" fill="#FAF8F5" letter-spacing="0.08em" opacity="0.9"><tspan  dy="0">THE STRATEGY OF</tspan><tspan x="30" dy="35">CONFLICT</tspan></text>
<text x="30" y="562" font-family="Helvetica Neue, Helvetica, Arial, sans-serif" font-size="14" font-weight="400" fill="#FAF8F5" letter-spacing="0.04em" opacity="0.55">Thomas Schelling</text>
  <rect x="0" y="0" width="6" height="600" fill="#7A6A5A" opacity="0.25"/><line x1="6" y1="0" x2="6" y2="600" stroke="#FAF8F5" stroke-width="0.5" opacity="0.15"/>
  <clipPath id="cover-clip">
    <rect width="400" height="600"/>
  </clipPath>
</svg>