<svg xmlns="http://www.w3.org/2000/svg" width="400" height="600" viewBox="0 0 400 600">
  <rect width="400" height="600" fill="#3A1A1A"/>
  <g clip-path="url(#cover-clip)">
    <circle cx="127" cy="191" r="15" fill="#FAF8F5" opacity="0.17"/>
<circle cx="200" cy="50" r="13" fill="none" stroke="#FAF8F5" stroke-width="1" opacity="0.20"/>
<circle cx="273" cy="269" r="11" fill="none" stroke="#FAF8F5" stroke-width="1" opacity="0.18"/>
<circle cx="346" cy="128" r="9" fill="#FAF8F5" opacity="0.11"/>
<circle cx="39" cy="347" r="7" fill="none" stroke="#FAF8F5" stroke-width="1" opacity="0.14"/>
<circle cx="112" cy="206" r="5" fill="none" stroke="#FAF8F5" stroke-width="1" opacity="0.12"/>
<circle cx="185" cy="65" r="3" fill="#FAF8F5" opacity="0.05"/>
<circle cx="258" cy="284" r="26" fill="none" stroke="#FAF8F5" stroke-width="1" opacity="0.23"/>
<circle cx="331" cy="143" r="24" fill="none" stroke="#FAF8F5" stroke-width="1" opacity="0.21"/>
<circle cx="24" cy="362" r="22" fill="#FAF8F5" opacity="0.14"/>
<circle cx="97" cy="221" r="20" fill="none" stroke="#FAF8F5" stroke-width="1" opacity="0.17"/>
<circle cx="170" cy="80" r="18" fill="none" stroke="#FAF8F5" stroke-width="1" opacity="0.15"/>
<circle cx="243" cy="299" r="16" fill="#FAF8F5" opacity="0.08"/>
  </g>
  <rect x="0" y="473" width="400" height="124" fill="#3A1A1A" opacity="0.6"/>
<line x1="30" y1="478" x2="370" y2="478" stroke="#FAF8F5" stroke-width="0.5" opacity="0.3"/>
<text x="30" y="490" font-family="Helvetica Neue, Helvetica, Arial, sans-serif" font-size="24" font-weight="700" fill="#FAF8F5" letter-spacing="0.08em" opacity="0.9"><tspan  dy="0">THE BEGINNING OF</tspan><tspan x="30" dy="30">INFINITY</tspan></text>
<text x="30" y="558" font-family="Helvetica Neue, Helvetica, Arial, sans-serif" font-size="14" font-weight="400" fill="#FAF8F5" letter-spacing="0.04em" opacity="0.55">David Deutsch</text>
  <rect x="0" y="0" width="6" height="600" fill="#6A3A3A" opacity="0.25"/><line x1="6" y1="0" x2="6" y2="600" stroke="#FAF8F5" stroke-width="0.5" opacity="0.15"/>
  <clipPath id="cover-clip">
    <rect width="400" height="600"/>
  </clipPath>
</svg>