<svg xmlns="http://www.w3.org/2000/svg" width="400" height="600" viewBox="0 0 400 600">
  <rect width="400" height="600" fill="#4A3A2A"/>
  <g clip-path="url(#cover-clip)">
    <line x1="-300" y1="0" x2="-1339" y2="600" stroke="#FAF8F5" stroke-width="1.5" opacity="0.18"/>
<line x1="-178" y1="0" x2="-1217" y2="600" stroke="#FAF8F5" stroke-width="2.3" opacity="0.16"/>
<line x1="-56" y1="0" x2="-1095" y2="600" stroke="#FAF8F5" stroke-width="3.1" opacity="0.14"/>
<line x1="67" y1="0" x2="-973" y2="600" stroke="#FAF8F5" stroke-width="1.5" opacity="0.11"/>
<line x1="189" y1="0" x2="-850" y2="600" stroke="#FAF8F5" stroke-width="2.3" opacity="0.09"/>
<line x1="311" y1="0" x2="-728" y2="600" stroke="#FAF8F5" stroke-width="3.1" opacity="0.09"/>
<line x1="433" y1="0" x2="-606" y2="600" stroke="#FAF8F5" stroke-width="1.5" opacity="0.11"/>
<line x1="556" y1="0" x2="-484" y2="600" stroke="#FAF8F5" stroke-width="2.3" opacity="0.14"/>
<line x1="678" y1="0" x2="-361" y2="600" stroke="#FAF8F5" stroke-width="3.1" opacity="0.16"/>
<line x1="800" y1="0" x2="-239" y2="600" stroke="#FAF8F5" stroke-width="1.5" opacity="0.18"/>
  </g>
  <rect x="0" y="458" width="400" height="144" fill="#4A3A2A" opacity="0.6"/>
<line x1="30" y1="463" x2="370" y2="463" stroke="#FAF8F5" stroke-width="0.5" opacity="0.3"/>
<text x="30" y="478" font-family="Helvetica Neue, Helvetica, Arial, sans-serif" font-size="32" font-weight="700" fill="#FAF8F5" letter-spacing="0.08em" opacity="0.9"><tspan  dy="0">THE MATING</tspan><tspan x="30" dy="40">MIND</tspan></text>
<text x="30" y="566" font-family="Helvetica Neue, Helvetica, Arial, sans-serif" font-size="14" font-weight="400" fill="#FAF8F5" letter-spacing="0.04em" opacity="0.55">Geoffrey Miller</text>
  <rect x="0" y="0" width="6" height="600" fill="#7A6A5A" opacity="0.25"/><line x1="6" y1="0" x2="6" y2="600" stroke="#FAF8F5" stroke-width="0.5" opacity="0.15"/>
  <clipPath id="cover-clip">
    <rect width="400" height="600"/>
  </clipPath>
</svg>