<svg xmlns="http://www.w3.org/2000/svg" width="400" height="600" viewBox="0 0 400 600">
  <rect width="400" height="600" fill="#E8DFD0"/>
  <g clip-path="url(#cover-clip)">
    <circle cx="277" cy="161" r="10" fill="none" stroke="#C75B3A" stroke-width="1" opacity="0.12"/>
<circle cx="350" cy="20" r="8" fill="#C75B3A" opacity="0.05"/>
<circle cx="43" cy="239" r="6" fill="none" stroke="#C75B3A" stroke-width="1" opacity="0.23"/>
<circle cx="116" cy="98" r="4" fill="none" stroke="#C75B3A" stroke-width="1" opacity="0.21"/>
<circle cx="189" cy="317" r="27" fill="#C75B3A" opacity="0.14"/>
<circle cx="262" cy="176" r="25" fill="none" stroke="#C75B3A" stroke-width="1" opacity="0.17"/>
<circle cx="335" cy="35" r="23" fill="none" stroke="#C75B3A" stroke-width="1" opacity="0.15"/>
<circle cx="28" cy="254" r="21" fill="#C75B3A" opacity="0.08"/>
<circle cx="101" cy="113" r="19" fill="none" stroke="#C75B3A" stroke-width="1" opacity="0.11"/>
<circle cx="174" cy="332" r="17" fill="none" stroke="#C75B3A" stroke-width="1" opacity="0.24"/>
<circle cx="247" cy="191" r="15" fill="#C75B3A" opacity="0.17"/>
<circle cx="320" cy="50" r="13" fill="none" stroke="#C75B3A" stroke-width="1" opacity="0.20"/>
<circle cx="13" cy="269" r="11" fill="none" stroke="#C75B3A" stroke-width="1" opacity="0.18"/>
  </g>
  <rect x="0" y="498" width="400" height="104" fill="#E8DFD0" opacity="0.6"/>
<line x1="30" y1="503" x2="370" y2="503" stroke="#C75B3A" stroke-width="0.5" opacity="0.3"/>
<text x="30" y="518" font-family="Helvetica Neue, Helvetica, Arial, sans-serif" font-size="32" font-weight="700" fill="#C75B3A" letter-spacing="0.08em" opacity="0.9"><tspan  dy="0">THE PRECIPICE</tspan></text>
<text x="30" y="566" font-family="Helvetica Neue, Helvetica, Arial, sans-serif" font-size="14" font-weight="400" fill="#C75B3A" letter-spacing="0.04em" opacity="0.55">Toby Ord</text>
  <rect x="0" y="0" width="6" height="600" fill="#D4C8B8" opacity="0.25"/><line x1="6" y1="0" x2="6" y2="600" stroke="#C75B3A" stroke-width="0.5" opacity="0.15"/>
  <clipPath id="cover-clip">
    <rect width="400" height="600"/>
  </clipPath>
</svg>