<svg xmlns="http://www.w3.org/2000/svg" width="400" height="600" viewBox="0 0 400 600">
  <rect width="400" height="600" fill="#3A1A1A"/>
  <g clip-path="url(#cover-clip)">
    <path d="M 229.7,210.0 L 229.6,212.2 L 229.1,214.3 L 228.3,216.4 L 227.2,218.5 L 225.8,220.4 L 224.1,222.2 L 222.1,223.9 L 219.9,225.5 L 217.5,226.8 L 214.9,228.0 L 212.1,229.0 L 209.2,229.8 L 206.2,230.4 L 203.1,230.7 L 200.0,230.8 L 196.9,230.7 L 193.8,230.4 L 190.8,229.8 L 187.9,229.0 L 185.1,228.0 L 182.5,226.8 L 180.1,225.5 L 177.9,223.9 L 175.9,222.2 L 174.2,220.4 L 172.8,218.5 L 171.7,216.4 L 170.9,214.3 L 170.4,212.2 L 170.3,210.0 L 170.4,207.8 L 170.9,205.7 L 171.7,203.6 L 172.8,201.5 L 174.2,199.6 L 175.9,197.8 L 177.9,196.1 L 180.1,194.5 L 182.5,193.2 L 185.1,192.0 L 187.9,191.0 L 190.8,190.2 L 193.8,189.6 L 196.9,189.3 L 200.0,189.2 L 203.1,189.3 L 206.2,189.6 L 209.2,190.2 L 212.1,191.0 L 214.9,192.0 L 217.5,193.2 L 219.9,194.5 L 222.1,196.1 L 224.1,197.8 L 225.8,199.6 L 227.2,201.5 L 228.3,203.6 L 229.1,205.7 L 229.6,207.8 L 229.7,210.0 Z" fill="none" stroke="#FAF8F5" stroke-width="1.2" opacity="0.08"/>
<path d="M 257.7,210.0 L 257.4,214.2 L 256.5,218.4 L 254.9,222.5 L 252.8,226.4 L 250.0,230.2 L 246.7,233.8 L 242.9,237.0 L 238.6,240.0 L 233.9,242.7 L 228.9,245.0 L 223.5,246.9 L 217.8,248.4 L 212.0,249.5 L 206.0,250.2 L 200.0,250.4 L 194.0,250.2 L 188.0,249.5 L 182.2,248.4 L 176.5,246.9 L 171.1,245.0 L 166.1,242.7 L 161.4,240.0 L 157.1,237.0 L 153.3,233.8 L 150.0,230.2 L 147.2,226.4 L 145.1,222.5 L 143.5,218.4 L 142.6,214.2 L 142.3,210.0 L 142.6,205.8 L 143.5,201.6 L 145.1,197.5 L 147.2,193.6 L 150.0,189.8 L 153.3,186.2 L 157.1,183.0 L 161.4,180.0 L 166.1,177.3 L 171.1,175.0 L 176.5,173.1 L 182.2,171.6 L 188.0,170.5 L 194.0,169.8 L 200.0,169.6 L 206.0,169.8 L 212.0,170.5 L 217.8,171.6 L 223.5,173.1 L 228.9,175.0 L 233.9,177.3 L 238.6,180.0 L 242.9,183.0 L 246.7,186.2 L 250.0,189.8 L 252.8,193.6 L 254.9,197.5 L 256.5,201.6 L 257.4,205.8 L 257.7,210.0 Z" fill="none" stroke="#FAF8F5" stroke-width="1.2" opacity="0.12"/>
<path d="M 285.7,210.0 L 285.3,216.3 L 283.9,222.5 L 281.5,228.5 L 278.3,234.4 L 274.3,240.0 L 269.4,245.3 L 263.7,250.2 L 257.4,254.6 L 250.4,258.6 L 242.9,262.0 L 234.9,264.8 L 226.5,267.1 L 217.8,268.7 L 209.0,269.7 L 200.0,270.0 L 191.0,269.7 L 182.2,268.7 L 173.5,267.1 L 165.1,264.8 L 157.1,262.0 L 149.6,258.6 L 142.6,254.6 L 136.3,250.2 L 130.6,245.3 L 125.7,240.0 L 121.7,234.4 L 118.5,228.5 L 116.1,222.5 L 114.7,216.3 L 114.3,210.0 L 114.7,203.7 L 116.1,197.5 L 118.5,191.5 L 121.7,185.6 L 125.7,180.0 L 130.6,174.7 L 136.3,169.8 L 142.6,165.4 L 149.6,161.4 L 157.1,158.0 L 165.1,155.2 L 173.5,152.9 L 182.2,151.3 L 191.0,150.3 L 200.0,150.0 L 209.0,150.3 L 217.8,151.3 L 226.5,152.9 L 234.9,155.2 L 242.9,158.0 L 250.4,161.4 L 257.4,165.4 L 263.7,169.8 L 269.4,174.7 L 274.3,180.0 L 278.3,185.6 L 281.5,191.5 L 283.9,197.5 L 285.3,203.7 L 285.7,210.0 Z" fill="none" stroke="#FAF8F5" stroke-width="1.2" opacity="0.16"/>
<path d="M 313.7,210.0 L 313.1,218.3 L 311.3,226.6 L 308.2,234.6 L 303.9,242.4 L 298.5,249.8 L 292.0,256.8 L 284.5,263.3 L 276.1,269.2 L 266.9,274.4 L 256.9,279.0 L 246.3,282.7 L 235.1,285.7 L 223.6,287.9 L 211.9,289.2 L 200.0,289.6 L 188.1,289.2 L 176.4,287.9 L 164.9,285.7 L 153.7,282.7 L 143.1,279.0 L 133.1,274.4 L 123.9,269.2 L 115.5,263.3 L 108.0,256.8 L 101.5,249.8 L 96.1,242.4 L 91.8,234.6 L 88.7,226.6 L 86.9,218.3 L 86.3,210.0 L 86.9,201.7 L 88.7,193.4 L 91.8,185.4 L 96.1,177.6 L 101.5,170.2 L 108.0,163.2 L 115.5,156.7 L 123.9,150.8 L 133.1,145.6 L 143.1,141.0 L 153.7,137.3 L 164.9,134.3 L 176.4,132.1 L 188.1,130.8 L 200.0,130.4 L 211.9,130.8 L 223.6,132.1 L 235.1,134.3 L 246.3,137.3 L 256.9,141.0 L 266.9,145.6 L 276.1,150.8 L 284.5,156.7 L 292.0,163.2 L 298.5,170.2 L 303.9,177.6 L 308.2,185.4 L 311.3,193.4 L 313.1,201.7 L 313.7,210.0 Z" fill="none" stroke="#FAF8F5" stroke-width="1.2" opacity="0.20"/>
<path d="M 341.7,210.0 L 341.0,220.4 L 338.6,230.6 L 334.8,240.7 L 329.5,250.4 L 322.8,259.6 L 314.7,268.3 L 305.3,276.4 L 294.8,283.7 L 283.3,290.3 L 270.9,295.9 L 257.7,300.6 L 243.8,304.4 L 229.5,307.1 L 214.8,308.7 L 200.0,309.2 L 185.2,308.7 L 170.5,307.1 L 156.2,304.4 L 142.3,300.6 L 129.1,295.9 L 116.7,290.3 L 105.2,283.7 L 94.7,276.4 L 85.3,268.3 L 77.2,259.6 L 70.5,250.4 L 65.2,240.7 L 61.4,230.6 L 59.0,220.4 L 58.3,210.0 L 59.0,199.6 L 61.4,189.4 L 65.2,179.3 L 70.5,169.6 L 77.2,160.4 L 85.3,151.7 L 94.7,143.6 L 105.2,136.3 L 116.7,129.7 L 129.1,124.1 L 142.3,119.4 L 156.2,115.6 L 170.5,112.9 L 185.2,111.3 L 200.0,110.8 L 214.8,111.3 L 229.5,112.9 L 243.8,115.6 L 257.7,119.4 L 270.9,124.1 L 283.3,129.7 L 294.8,136.3 L 305.3,143.6 L 314.7,151.7 L 322.8,160.4 L 329.5,169.6 L 334.8,179.3 L 338.6,189.4 L 341.0,199.6 L 341.7,210.0 Z" fill="none" stroke="#FAF8F5" stroke-width="1.2" opacity="0.24"/>
<path d="M 369.7,210.0 L 368.8,222.4 L 366.0,234.7 L 361.4,246.7 L 355.1,258.3 L 347.0,269.4 L 337.3,279.8 L 326.1,289.5 L 313.6,298.3 L 299.8,306.1 L 284.9,312.9 L 269.0,318.5 L 252.5,323.0 L 235.3,326.2 L 217.7,328.2 L 200.0,328.8 L 182.3,328.2 L 164.7,326.2 L 147.5,323.0 L 131.0,318.5 L 115.1,312.9 L 100.2,306.1 L 86.4,298.3 L 73.9,289.5 L 62.7,279.8 L 53.0,269.4 L 44.9,258.3 L 38.6,246.7 L 34.0,234.7 L 31.2,222.4 L 30.3,210.0 L 31.2,197.6 L 34.0,185.3 L 38.6,173.3 L 44.9,161.7 L 53.0,150.6 L 62.7,140.2 L 73.9,130.5 L 86.4,121.7 L 100.2,113.9 L 115.1,107.1 L 131.0,101.5 L 147.5,97.0 L 164.7,93.8 L 182.3,91.8 L 200.0,91.2 L 217.7,91.8 L 235.3,93.8 L 252.5,97.0 L 269.0,101.5 L 284.9,107.1 L 299.8,113.9 L 313.6,121.7 L 326.1,130.5 L 337.3,140.2 L 347.0,150.6 L 355.1,161.7 L 361.4,173.3 L 366.0,185.3 L 368.8,197.6 L 369.7,210.0 Z" fill="none" stroke="#FAF8F5" stroke-width="1.2" opacity="0.28"/>
  </g>
  <rect x="0" y="466" width="400" height="134" fill="#3A1A1A" opacity="0.6"/>
<line x1="30" y1="471" x2="370" y2="471" stroke="#FAF8F5" stroke-width="0.5" opacity="0.3"/>
<text x="30" y="484" font-family="Helvetica Neue, Helvetica, Arial, sans-serif" font-size="28" font-weight="700" fill="#FAF8F5" letter-spacing="0.08em" opacity="0.9"><tspan  dy="0">THE DAWN OF</tspan><tspan x="30" dy="35">EVERYTHING</tspan></text>
<text x="30" y="562" font-family="Helvetica Neue, Helvetica, Arial, sans-serif" font-size="14" font-weight="400" fill="#FAF8F5" letter-spacing="0.04em" opacity="0.55">David Graeber &amp; David Wengrow</text>
  <rect x="0" y="0" width="6" height="600" fill="#6A3A3A" opacity="0.25"/><line x1="6" y1="0" x2="6" y2="600" stroke="#FAF8F5" stroke-width="0.5" opacity="0.15"/>
  <clipPath id="cover-clip">
    <rect width="400" height="600"/>
  </clipPath>
</svg>