<svg xmlns="http://www.w3.org/2000/svg" width="400" height="600" viewBox="0 0 400 600">
  <rect width="400" height="600" fill="#5A2A2A"/>
  <g clip-path="url(#cover-clip)">
    <rect x="320" y="20" width="80" height="51" fill="#D4A84B" opacity="0.12"/>
<rect x="0" y="71" width="80" height="51" fill="#D4A84B" opacity="0.18"/>
<rect x="240" y="71" width="80" height="51" fill="#D4A84B" opacity="0.24"/>
<rect x="240" y="123" width="80" height="51" fill="none" stroke="#D4A84B" stroke-width="0.5" opacity="0.1"/>
<rect x="160" y="174" width="80" height="51" fill="#D4A84B" opacity="0.10"/>
<rect x="160" y="226" width="80" height="51" fill="none" stroke="#D4A84B" stroke-width="0.5" opacity="0.1"/>
<rect x="80" y="277" width="80" height="51" fill="#D4A84B" opacity="0.16"/>
<rect x="320" y="277" width="80" height="51" fill="#D4A84B" opacity="0.22"/>
<rect x="0" y="329" width="80" height="51" fill="#D4A84B" opacity="0.08"/>
<rect x="320" y="329" width="80" height="51" fill="none" stroke="#D4A84B" stroke-width="0.5" opacity="0.1"/>
  </g>
  <rect x="0" y="443" width="400" height="154" fill="#5A2A2A" opacity="0.6"/>
<line x1="30" y1="448" x2="370" y2="448" stroke="#D4A84B" stroke-width="0.5" opacity="0.3"/>
<text x="30" y="460" font-family="Helvetica Neue, Helvetica, Arial, sans-serif" font-size="24" font-weight="700" fill="#D4A84B" letter-spacing="0.08em" opacity="0.9"><tspan  dy="0">THERE IS NO</tspan><tspan x="30" dy="30">ANTIMEMETICS</tspan><tspan x="30" dy="30">DIVISION</tspan></text>
<text x="30" y="558" font-family="Helvetica Neue, Helvetica, Arial, sans-serif" font-size="14" font-weight="400" fill="#D4A84B" letter-spacing="0.04em" opacity="0.55">qntm</text>
  <rect x="0" y="0" width="6" height="600" fill="#8A4A4A" opacity="0.25"/><line x1="6" y1="0" x2="6" y2="600" stroke="#D4A84B" stroke-width="0.5" opacity="0.15"/>
  <clipPath id="cover-clip">
    <rect width="400" height="600"/>
  </clipPath>
</svg>