<svg xmlns="http://www.w3.org/2000/svg" width="400" height="600" viewBox="0 0 400 600">
  <rect width="400" height="600" fill="#0D1A0D"/>
  <g clip-path="url(#cover-clip)">
    <path d="M 0,37 L 8,32 L 16,29 L 24,27 L 32,26 L 40,26 L 48,28 L 56,30 L 64,34 L 72,38 L 80,44 L 88,50 L 96,56 L 104,62 L 112,69 L 120,75 L 128,80 L 136,85 L 144,89 L 152,92 L 160,93 L 168,94 L 176,93 L 184,92 L 192,89 L 200,85 L 208,80 L 216,74 L 224,68 L 232,62 L 240,56 L 248,49 L 256,43 L 264,38 L 272,34 L 280,30 L 288,28 L 296,26 L 304,26 L 312,27 L 320,29 L 328,33 L 336,37 L 344,42 L 352,48 L 360,54 L 368,60 L 376,67 L 384,73 L 392,78 L 400,83 L 408,88" fill="none" stroke="#8ABA6A" stroke-width="1.5" opacity="0.10"/>
<path d="M 0,84 L 8,89 L 16,95 L 24,101 L 32,107 L 40,114 L 48,120 L 56,125 L 64,130 L 72,134 L 80,137 L 88,138 L 96,139 L 104,138 L 112,137 L 120,134 L 128,130 L 136,125 L 144,119 L 152,113 L 160,107 L 168,100 L 176,94 L 184,88 L 192,83 L 200,79 L 208,75 L 216,73 L 224,71 L 232,71 L 240,72 L 248,74 L 256,78 L 264,82 L 272,87 L 280,93 L 288,99 L 296,105 L 304,112 L 312,118 L 320,123 L 328,128 L 336,133 L 344,136 L 352,138 L 360,139 L 368,139 L 376,137 L 384,135 L 392,131 L 400,126 L 408,121" fill="none" stroke="#8ABA6A" stroke-width="2.5" opacity="0.12"/>
<path d="M 0,179 L 8,182 L 16,183 L 24,184 L 32,183 L 40,181 L 48,178 L 56,175 L 64,170 L 72,164 L 80,158 L 88,152 L 96,145 L 104,139 L 112,133 L 120,128 L 128,124 L 136,120 L 144,118 L 152,116 L 160,116 L 168,117 L 176,119 L 184,123 L 192,127 L 200,132 L 208,138 L 216,144 L 224,150 L 232,157 L 240,163 L 248,169 L 256,174 L 264,178 L 272,181 L 280,183 L 288,184 L 296,184 L 304,182 L 312,180 L 320,176 L 328,171 L 336,166 L 344,160 L 352,154 L 360,147 L 368,141 L 376,135 L 384,130 L 392,125 L 400,121 L 408,118" fill="none" stroke="#8ABA6A" stroke-width="1.5" opacity="0.14"/>
<path d="M 0,209 L 8,203 L 16,197 L 24,190 L 32,184 L 40,178 L 48,173 L 56,168 L 64,165 L 72,163 L 80,161 L 88,161 L 96,162 L 104,164 L 112,168 L 120,172 L 128,177 L 136,183 L 144,189 L 152,196 L 160,202 L 168,208 L 176,214 L 184,219 L 192,223 L 200,226 L 208,228 L 216,229 L 224,229 L 232,227 L 240,225 L 248,221 L 256,216 L 264,211 L 272,205 L 280,199 L 288,192 L 296,186 L 304,180 L 312,175 L 320,170 L 328,166 L 336,163 L 344,162 L 352,161 L 360,162 L 368,164 L 376,167 L 384,171 L 392,175 L 400,181 L 408,187" fill="none" stroke="#8ABA6A" stroke-width="2.5" opacity="0.16"/>
<path d="M 0,262 L 8,266 L 16,270 L 24,272 L 32,274 L 40,274 L 48,273 L 56,271 L 64,267 L 72,263 L 80,258 L 88,252 L 96,246 L 104,240 L 112,233 L 120,227 L 128,222 L 136,217 L 144,212 L 152,209 L 160,207 L 168,206 L 176,206 L 184,208 L 192,210 L 200,214 L 208,219 L 216,224 L 224,230 L 232,236 L 240,242 L 248,249 L 256,255 L 264,260 L 272,265 L 280,269 L 288,272 L 296,273 L 304,274 L 312,273 L 320,272 L 328,269 L 336,265 L 344,260 L 352,254 L 360,248 L 368,242 L 376,235 L 384,229 L 392,223 L 400,218 L 408,214" fill="none" stroke="#8ABA6A" stroke-width="1.5" opacity="0.17"/>
<path d="M 0,308 L 8,303 L 16,297 L 24,291 L 32,285 L 40,278 L 48,272 L 56,266 L 64,261 L 72,257 L 80,254 L 88,252 L 96,251 L 104,251 L 112,253 L 120,255 L 128,259 L 136,264 L 144,269 L 152,275 L 160,281 L 168,288 L 176,294 L 184,300 L 192,305 L 200,310 L 208,314 L 216,317 L 224,318 L 232,319 L 240,318 L 248,316 L 256,313 L 264,309 L 272,305 L 280,299 L 288,293 L 296,287 L 304,280 L 312,274 L 320,268 L 328,263 L 336,259 L 344,255 L 352,253 L 360,251 L 368,251 L 376,252 L 384,254 L 392,258 L 400,262 L 408,267" fill="none" stroke="#8ABA6A" stroke-width="2.5" opacity="0.19"/>
<path d="M 0,302 L 8,299 L 16,297 L 24,296 L 32,296 L 40,298 L 48,300 L 56,304 L 64,309 L 72,314 L 80,320 L 88,326 L 96,333 L 104,339 L 112,345 L 120,350 L 128,355 L 136,359 L 144,362 L 152,363 L 160,364 L 168,363 L 176,361 L 184,358 L 192,354 L 200,350 L 208,344 L 216,338 L 224,332 L 232,325 L 240,319 L 248,313 L 256,308 L 264,303 L 272,300 L 280,298 L 288,296 L 296,296 L 304,297 L 312,299 L 320,303 L 328,307 L 336,312 L 344,318 L 352,324 L 360,331 L 368,337 L 376,343 L 384,349 L 392,354 L 400,358 L 408,361" fill="none" stroke="#8ABA6A" stroke-width="1.5" opacity="0.21"/>
<path d="M 0,359 L 8,365 L 16,371 L 24,378 L 32,384 L 40,390 L 48,396 L 56,400 L 64,404 L 72,407 L 80,409 L 88,409 L 96,408 L 104,406 L 112,403 L 120,399 L 128,394 L 136,389 L 144,383 L 152,376 L 160,370 L 168,364 L 176,358 L 184,353 L 192,348 L 200,345 L 208,342 L 216,341 L 224,341 L 232,342 L 240,345 L 248,348 L 256,352 L 264,357 L 272,363 L 280,369 L 288,376 L 296,382 L 304,388 L 312,394 L 320,399 L 328,403 L 336,406 L 344,408 L 352,409 L 360,409 L 368,407 L 376,404 L 384,401 L 392,396 L 400,391 L 408,385" fill="none" stroke="#8ABA6A" stroke-width="2.5" opacity="0.23"/>
  </g>
  <rect x="0" y="458" width="400" height="144" fill="#0D1A0D" opacity="0.6"/>
<line x1="30" y1="463" x2="370" y2="463" stroke="#8ABA6A" stroke-width="0.5" opacity="0.3"/>
<text x="30" y="478" font-family="Helvetica Neue, Helvetica, Arial, sans-serif" font-size="32" font-weight="700" fill="#8ABA6A" letter-spacing="0.08em" opacity="0.9"><tspan  dy="0">THINKING IN</tspan><tspan x="30" dy="40">BETS</tspan></text>
<text x="30" y="566" font-family="Helvetica Neue, Helvetica, Arial, sans-serif" font-size="14" font-weight="400" fill="#8ABA6A" letter-spacing="0.04em" opacity="0.55">Annie Duke</text>
  <rect x="0" y="0" width="6" height="600" fill="#2A4A2A" opacity="0.25"/><line x1="6" y1="0" x2="6" y2="600" stroke="#8ABA6A" stroke-width="0.5" opacity="0.15"/>
  <clipPath id="cover-clip">
    <rect width="400" height="600"/>
  </clipPath>
</svg>