<svg xmlns="http://www.w3.org/2000/svg" width="400" height="600" viewBox="0 0 400 600">
  <rect width="400" height="600" fill="#0A1A2A"/>
  <g clip-path="url(#cover-clip)">
    <circle cx="167" cy="251" r="25" fill="none" stroke="#C75B3A" stroke-width="1" opacity="0.12"/>
<circle cx="240" cy="110" r="23" fill="#C75B3A" opacity="0.05"/>
<circle cx="313" cy="329" r="21" fill="none" stroke="#C75B3A" stroke-width="1" opacity="0.23"/>
<circle cx="386" cy="188" r="19" fill="none" stroke="#C75B3A" stroke-width="1" opacity="0.21"/>
<circle cx="79" cy="47" r="17" fill="#C75B3A" opacity="0.14"/>
<circle cx="152" cy="266" r="15" fill="none" stroke="#C75B3A" stroke-width="1" opacity="0.17"/>
<circle cx="225" cy="125" r="13" fill="none" stroke="#C75B3A" stroke-width="1" opacity="0.15"/>
<circle cx="298" cy="344" r="11" fill="#C75B3A" opacity="0.08"/>
<circle cx="371" cy="203" r="9" fill="none" stroke="#C75B3A" stroke-width="1" opacity="0.11"/>
<circle cx="64" cy="62" r="7" fill="none" stroke="#C75B3A" stroke-width="1" opacity="0.24"/>
<circle cx="137" cy="281" r="5" fill="#C75B3A" opacity="0.17"/>
<circle cx="210" cy="140" r="3" fill="none" stroke="#C75B3A" stroke-width="1" opacity="0.20"/>
<circle cx="283" cy="359" r="26" fill="none" stroke="#C75B3A" stroke-width="1" opacity="0.18"/>
  </g>
  <rect x="0" y="473" width="400" height="124" fill="#0A1A2A" opacity="0.6"/>
<line x1="30" y1="478" x2="370" y2="478" stroke="#C75B3A" stroke-width="0.5" opacity="0.3"/>
<text x="30" y="490" font-family="Helvetica Neue, Helvetica, Arial, sans-serif" font-size="24" font-weight="700" fill="#C75B3A" letter-spacing="0.08em" opacity="0.9"><tspan  dy="0">TRADE WARS ARE CLASS</tspan><tspan x="30" dy="30">WARS</tspan></text>
<text x="30" y="558" font-family="Helvetica Neue, Helvetica, Arial, sans-serif" font-size="14" font-weight="400" fill="#C75B3A" letter-spacing="0.04em" opacity="0.55">Klein &amp; Pettis</text>
  <rect x="0" y="0" width="6" height="600" fill="#2A4A6A" opacity="0.25"/><line x1="6" y1="0" x2="6" y2="600" stroke="#C75B3A" stroke-width="0.5" opacity="0.15"/>
  <clipPath id="cover-clip">
    <rect width="400" height="600"/>
  </clipPath>
</svg>