<svg xmlns="http://www.w3.org/2000/svg" width="400" height="600" viewBox="0 0 400 600">
  <rect width="400" height="600" fill="#2A2A3A"/>
  <g clip-path="url(#cover-clip)">
    <path d="M 0,38 L 8,41 L 16,46 L 24,51 L 32,56 L 40,62 L 48,67 L 56,72 L 64,77 L 72,81 L 80,84 L 88,87 L 96,88 L 104,89 L 112,89 L 120,87 L 128,85 L 136,81 L 144,77 L 152,72 L 160,67 L 168,62 L 176,56 L 184,51 L 192,46 L 200,42 L 208,38 L 216,35 L 224,32 L 232,31 L 240,31 L 248,32 L 256,34 L 264,36 L 272,40 L 280,44 L 288,49 L 296,54 L 304,60 L 312,65 L 320,71 L 328,75 L 336,80 L 344,83 L 352,86 L 360,88 L 368,89 L 376,89 L 384,88 L 392,85 L 400,82 L 408,79" fill="none" stroke="#E8A870" stroke-width="1.5" opacity="0.10"/>
<path d="M 0,133 L 8,136 L 16,138 L 24,140 L 32,140 L 40,140 L 48,138 L 56,136 L 64,133 L 72,128 L 80,124 L 88,119 L 96,113 L 104,108 L 112,102 L 120,97 L 128,93 L 136,89 L 144,86 L 152,84 L 160,83 L 168,82 L 176,83 L 184,85 L 192,88 L 200,92 L 208,96 L 216,101 L 224,106 L 232,111 L 240,117 L 248,122 L 256,127 L 264,131 L 272,135 L 280,138 L 288,140 L 296,140 L 304,140 L 312,139 L 320,137 L 328,134 L 336,130 L 344,125 L 352,120 L 360,115 L 368,110 L 376,104 L 384,99 L 392,94 L 400,90 L 408,87" fill="none" stroke="#E8A870" stroke-width="2.5" opacity="0.12"/>
<path d="M 0,180 L 8,175 L 16,170 L 24,165 L 32,159 L 40,154 L 48,149 L 56,144 L 64,140 L 72,137 L 80,135 L 88,134 L 96,134 L 104,135 L 112,137 L 120,139 L 128,143 L 136,147 L 144,152 L 152,158 L 160,163 L 168,168 L 176,174 L 184,178 L 192,183 L 200,186 L 208,189 L 216,191 L 224,192 L 232,192 L 240,190 L 248,188 L 256,185 L 264,181 L 272,177 L 280,172 L 288,166 L 296,161 L 304,156 L 312,150 L 320,146 L 328,142 L 336,138 L 344,136 L 352,134 L 360,134 L 368,134 L 376,136 L 384,138 L 392,142 L 400,146 L 408,151" fill="none" stroke="#E8A870" stroke-width="1.5" opacity="0.14"/>
<path d="M 0,228 L 8,233 L 16,237 L 24,240 L 32,242 L 40,243 L 48,243 L 56,242 L 64,241 L 72,238 L 80,234 L 88,230 L 96,225 L 104,220 L 112,214 L 120,209 L 128,204 L 136,199 L 144,194 L 152,191 L 160,188 L 168,186 L 176,185 L 184,186 L 192,187 L 200,189 L 208,192 L 216,196 L 224,200 L 232,205 L 240,211 L 248,216 L 256,221 L 264,227 L 272,231 L 280,235 L 288,239 L 296,241 L 304,243 L 312,243 L 320,243 L 328,241 L 336,239 L 344,235 L 352,231 L 360,227 L 368,222 L 376,216 L 384,211 L 392,205 L 400,200 L 408,196" fill="none" stroke="#E8A870" stroke-width="2.5" opacity="0.16"/>
<path d="M 0,289 L 8,286 L 16,281 L 24,276 L 32,271 L 40,266 L 48,260 L 56,255 L 64,250 L 72,246 L 80,242 L 88,239 L 96,238 L 104,237 L 112,237 L 120,238 L 128,240 L 136,243 L 144,247 L 152,252 L 160,257 L 168,262 L 176,268 L 184,273 L 192,278 L 200,283 L 208,287 L 216,290 L 224,293 L 232,294 L 240,295 L 248,294 L 256,293 L 264,290 L 272,287 L 280,283 L 288,278 L 296,273 L 304,268 L 312,262 L 320,257 L 328,252 L 336,247 L 344,243 L 352,240 L 360,238 L 368,237 L 376,237 L 384,238 L 392,239 L 400,242 L 408,246" fill="none" stroke="#E8A870" stroke-width="1.5" opacity="0.19"/>
<path d="M 0,297 L 8,294 L 16,291 L 24,289 L 32,288 L 40,288 L 48,290 L 56,292 L 64,295 L 72,299 L 80,303 L 88,308 L 96,314 L 104,319 L 112,324 L 120,330 L 128,334 L 136,338 L 144,342 L 152,344 L 160,346 L 168,346 L 176,346 L 184,344 L 192,342 L 200,338 L 208,334 L 216,329 L 224,324 L 232,319 L 240,313 L 248,308 L 256,303 L 264,299 L 272,295 L 280,292 L 288,290 L 296,288 L 304,288 L 312,289 L 320,291 L 328,294 L 336,297 L 344,302 L 352,307 L 360,312 L 368,317 L 376,323 L 384,328 L 392,333 L 400,337 L 408,341" fill="none" stroke="#E8A870" stroke-width="2.5" opacity="0.21"/>
<path d="M 0,350 L 8,355 L 16,360 L 24,365 L 32,371 L 40,376 L 48,381 L 56,386 L 64,390 L 72,393 L 80,396 L 88,397 L 96,398 L 104,397 L 112,395 L 120,393 L 128,390 L 136,385 L 144,381 L 152,376 L 160,370 L 168,365 L 176,359 L 184,354 L 192,350 L 200,346 L 208,343 L 216,341 L 224,340 L 232,340 L 240,341 L 248,342 L 256,345 L 264,349 L 272,353 L 280,358 L 288,363 L 296,369 L 304,374 L 312,379 L 320,384 L 328,389 L 336,392 L 344,395 L 352,397 L 360,398 L 368,397 L 376,396 L 384,394 L 392,391 L 400,387 L 408,382" fill="none" stroke="#E8A870" stroke-width="1.5" opacity="0.23"/>
  </g>
  <rect x="0" y="498" width="400" height="104" fill="#2A2A3A" opacity="0.6"/>
<line x1="30" y1="503" x2="370" y2="503" stroke="#E8A870" stroke-width="0.5" opacity="0.3"/>
<text x="30" y="518" font-family="Helvetica Neue, Helvetica, Arial, sans-serif" font-size="32" font-weight="700" fill="#E8A870" letter-spacing="0.08em" opacity="0.9"><tspan  dy="0">ZERO TO ONE</tspan></text>
<text x="30" y="566" font-family="Helvetica Neue, Helvetica, Arial, sans-serif" font-size="14" font-weight="400" fill="#E8A870" letter-spacing="0.04em" opacity="0.55">Peter Thiel</text>
  <rect x="0" y="0" width="6" height="600" fill="#4A4A6A" opacity="0.25"/><line x1="6" y1="0" x2="6" y2="600" stroke="#E8A870" stroke-width="0.5" opacity="0.15"/>
  <clipPath id="cover-clip">
    <rect width="400" height="600"/>
  </clipPath>
</svg>